<?xml version="1.0" encoding="utf-8"?>
<!-- Generator: Adobe Illustrator 19.0.0, SVG Export Plug-In . SVG Version: 6.00 Build 0)  -->
<svg version="1.1" id="Layer_1" xmlns="http://www.w3.org/2000/svg" xmlns:xlink="http://www.w3.org/1999/xlink" x="0px" y="0px"
	 viewBox="32 195.9 659 450" style="enable-background:new 32 195.9 659 450;" xml:space="preserve">
<style type="text/css">
	.st0{fill:#266590;}
	.st1{fill:none;stroke:#266590;stroke-width:4;stroke-miterlimit:10;}
	.st2{opacity:0.65;}
	.st3{opacity:0.65;fill:#266590;}
	.st4{fill:#FFFFFF;}
	.st5{opacity:0.65;fill:#266590;enable-background:new    ;}
	.st6{fill:#256490;stroke:#FFFFFF;stroke-width:4.8646;stroke-miterlimit:10;}
	.st7{clip-path:url(#SVGID_2_);fill:#266590;}
	.st8{clip-path:url(#SVGID_4_);fill:#FFFFFF;}
	.st9{clip-path:url(#SVGID_6_);fill:#FFFFFF;}
	.st10{clip-path:url(#SVGID_8_);fill:#FFFFFF;}
	.st11{clip-path:url(#SVGID_10_);fill:#266590;}
	.st12{clip-path:url(#SVGID_12_);fill:#FFFF00;}
	.st13{clip-path:url(#SVGID_14_);fill:#266590;}
	.st14{clip-path:url(#SVGID_16_);fill:#FF7BAC;}
	.st15{clip-path:url(#SVGID_18_);fill:#266590;}
	.st16{clip-path:url(#SVGID_20_);fill:#FFFFFF;}
	.st17{clip-path:url(#SVGID_22_);fill:#FFFFFF;}
	.st18{clip-path:url(#SVGID_24_);fill:#FFFFFF;}
	.st19{clip-path:url(#SVGID_26_);fill:#266590;}
	.st20{clip-path:url(#SVGID_28_);fill:#FFFF00;}
	.st21{clip-path:url(#SVGID_30_);fill:#266590;}
	.st22{clip-path:url(#SVGID_32_);fill:#FF7BAC;}
	.st23{fill:#FFFF00;}
	.st24{fill:#FF7BAC;}
</style>
<path class="st0" d="M108.3,302.2c-1.8,4.1-2.7,5.9-5.1,9.5c-3.3,5-7.9,11.2-13.7,11.3c-5.1,0-6.4-3.3-13.3-3.3s-8.4,3.3-13.5,3.3
	c-5.7-0.1-10.1-5.7-13.4-10.7c-9.2-14-10.2-30.4-4.5-39.2c4-6.2,10.4-9.8,16.4-9.8c6.1,0,9.9,3.3,15,3.3c4.9,0,7.9-3.3,14.9-3.3
	c5.3,0,11,2.9,15,7.9C92.9,278.4,95,297.2,108.3,302.2L108.3,302.2z"/>
<path class="st0" d="M85.7,257.7c2.6-3.3,4.5-7.9,3.8-12.7c-4.2,0.3-9.1,2.9-11.9,6.4c-2.6,3.1-4.7,7.8-3.9,12.3
	C78.3,263.9,83,261.2,85.7,257.7L85.7,257.7z"/>
<path class="st0" d="M280,278.6c-2.6,0-4.7,2.2-4.7,4.8v18.8c0,2.7,2.1,4.8,4.7,4.8c2.6,0,4.7-2.2,4.7-4.8v-18.8
	C284.7,280.7,282.6,278.6,280,278.6z M222.7,278.6c-2.6,0-4.7,2.2-4.7,4.8v18.8c0,2.7,2.1,4.8,4.7,4.8s4.7-2.2,4.7-4.8v-18.8
	C227.5,280.7,225.3,278.6,222.7,278.6z"/>
<path class="st0" d="M230.3,278.7v34.4c0,2,1.7,3.7,3.7,3.7h4.2v10.5c0,2.7,2.1,4.8,4.7,4.8c2.6,0,4.7-2.2,4.7-4.8v-10.5h7.4v10.5
	c0,2.7,2.1,4.8,4.7,4.8s4.7-2.2,4.7-4.8v-10.5h4.2c2,0,3.7-1.7,3.7-3.7v-34.4H230.3z"/>
<path class="st0" d="M261.3,260.9l3.9-5.7c0.2-0.3,0.2-0.8-0.1-1c-0.3-0.2-0.7-0.1-1,0.2l-4.1,5.9c-2.7-1.1-5.6-1.6-8.8-1.6
	c-3.1,0-6.1,0.6-8.8,1.6l-4.1-5.9c-0.2-0.3-0.7-0.4-1-0.2s-0.4,0.7-0.1,1l3.9,5.7c-6.2,2.9-10.6,8.4-11.1,14.8h42.2
	C271.9,269.3,267.5,263.8,261.3,260.9z M242.4,269.8c-1.3,0-2.3-1-2.3-2.3c0-1.3,1-2.3,2.3-2.3s2.3,1,2.3,2.3
	C244.8,268.8,243.7,269.8,242.4,269.8z M260.5,269.8c-1.3,0-2.3-1-2.3-2.3c0-1.3,1-2.3,2.3-2.3s2.3,1,2.3,2.3
	C262.9,268.8,261.8,269.8,260.5,269.8z"/>
<polygon class="st0" points="394.2,267.7 423.2,263.7 423.2,291.7 394.3,291.8 "/>
<polygon class="st0" points="423.1,294.9 423.2,322.8 394.3,318.8 394.3,294.7 "/>
<polygon class="st0" points="426.7,263.2 465,257.6 465,291.3 426.7,291.6 "/>
<polygon class="st0" points="465,295.1 465,328.6 426.7,323.2 426.6,295.1 "/>
<polygon class="st0" points="651.5,264.9 662.6,263.4 662.7,274.1 651.6,274.2 "/>
<polygon class="st0" points="662.6,275.4 662.6,286.1 651.6,284.6 651.6,275.3 "/>
<polygon class="st0" points="664,263.2 678.7,261.1 678.7,274 664,274.1 "/>
<polygon class="st0" points="678.7,275.5 678.7,288.3 664,286.2 664,275.4 "/>
<path class="st0" d="M615.4,265.4c-1,0-1.9,0.9-1.9,1.9v7.6c0,1.1,0.8,1.9,1.9,1.9c1,0,1.9-0.9,1.9-1.9v-7.5
	C617.3,266.3,616.5,265.4,615.4,265.4z M592.6,265.4c-1,0-1.9,0.9-1.9,1.9v7.6c0,1.1,0.8,1.9,1.9,1.9s1.9-0.9,1.9-1.9v-7.5
	C594.5,266.3,593.6,265.4,592.6,265.4z"/>
<path class="st0" d="M595.6,265.5v13.7c0,0.8,0.7,1.5,1.5,1.5h1.7v4.2c0,1.1,0.8,1.9,1.9,1.9c1,0,1.9-0.9,1.9-1.9v-4.2h2.9v4.2
	c0,1.1,0.8,1.9,1.9,1.9c1,0,1.9-0.9,1.9-1.9v-4.2h1.7c0.8,0,1.5-0.7,1.5-1.5v-13.7H595.6z"/>
<path class="st0" d="M608,258.4l1.6-2.3c0.1-0.1,0.1-0.3-0.1-0.4c-0.1-0.1-0.3,0-0.4,0.1l-1.6,2.3c-1.1-0.4-2.2-0.7-3.5-0.7
	s-2.4,0.2-3.5,0.7l-1.6-2.3c-0.1-0.1-0.3-0.2-0.4-0.1c-0.1,0.1-0.1,0.3-0.1,0.4l1.6,2.3c-2.5,1.2-4.2,3.3-4.4,5.9h16.9
	C612.2,261.7,610.5,259.5,608,258.4z M600.5,261.9c-0.5,0-0.9-0.4-0.9-0.9s0.4-0.9,0.9-0.9s0.9,0.4,0.9,0.9S601,261.9,600.5,261.9z
	 M607.7,261.9c-0.5,0-0.9-0.4-0.9-0.9s0.4-0.9,0.9-0.9s0.9,0.4,0.9,0.9C608.6,261.5,608.2,261.9,607.7,261.9z"/>
<path class="st0" d="M650.1,324.4c-0.7,1.6-1.1,2.4-2.1,3.8c-1.3,2-3.2,4.6-5.6,4.6c-2.1,0-2.6-1.4-5.4-1.3c-2.8,0-3.4,1.4-5.5,1.3
	c-2.3,0-4.1-2.3-5.5-4.3c-3.7-5.7-4.1-12.4-1.8-15.9c1.6-2.5,4.2-4,6.7-4s4,1.4,6.1,1.4c2,0,3.2-1.4,6.1-1.4c2.2,0,4.5,1.2,6.1,3.2
	C643.8,314.7,644.6,322.4,650.1,324.4L650.1,324.4z"/>
<path class="st0" d="M641.1,306.3c1-1.3,1.8-3.2,1.5-5.1c-1.7,0.1-3.7,1.2-4.8,2.6c-1.1,1.3-1.9,3.2-1.6,5
	C638,308.9,640,307.8,641.1,306.3L641.1,306.3z"/>
<path class="st1" d="M618.6,318.8c-10.8-5.5-17.7-15.6-18.6-28.3"/>
<path class="st1" d="M670.4,290.3c-0.8,12.9-7.3,22.6-18.3,28"/>
<path class="st1" d="M614.6,259.3c5.8-4.2,12.9-6.6,20.6-6.6c8.5,0,15.7,2.3,21.8,7.4"/>
<g>
	<g class="st2">
		<path class="st0" d="M84.2,409L76,436.5l27.5-8.2c-1.3-4.4-3.7-8.6-7.2-12C92.8,412.7,88.6,410.3,84.2,409z"/>
	</g>
	<g>
		<path class="st0" d="M51.8,420c-11.2,11.2-11.2,29.4,0,40.6s29.4,11.2,40.6,0c7.7-7.7,10.1-18.8,7.2-28.6l-27.5,8.2l8.3-27.5
			C70.7,409.8,59.6,412.2,51.8,420z"/>
	</g>
</g>
<rect x="220.3" y="421.5" transform="matrix(-0.7071 0.7071 -0.7071 -0.7071 721.9092 560.8607)" class="st0" width="48.9" height="16.9"/>
<polygon class="st3" points="232.1,454.5 215.6,459.1 220.1,442.6 "/>
<polygon class="st0" points="222.2,457.3 215.6,459.1 217.4,452.5 "/>
<rect x="218" y="426.9" transform="matrix(-0.7071 0.7071 -0.7071 -0.7071 716.1006 558.2794)" class="st4" width="48.9" height="1"/>
<rect x="222.9" y="431.9" transform="matrix(-0.7071 0.7071 -0.7071 -0.7071 727.9301 563.2106)" class="st4" width="48.9" height="1"/>
<path class="st0" d="M273.9,412.7l-4.5,4.5l-11.9-11.9l4.5-4.5c1-1,2.7-1,3.7,0l8.2,8.2C274.9,410,274.9,411.7,273.9,412.7z"/>
<rect x="215" y="458.9" class="st0" width="60" height="1"/>
<g>
	<path class="st5" d="M417.2,426.6L417.2,426.6c-0.7,0.7-1.8,0.7-2.5,0l-3.4-3.4l1.6-1.6c0.5-0.5,0.5-1.3,0-1.8l-1.6-1.6
		c0.9-0.9,1.6-1.6,2-2c-2.6,2.6,8.3-8.2,8.3-8.2c-6.1-3.8-10.9,0.4-13.5,2.9c-0.4,0.4-1.1,1.1-2,2l-1.6-1.6c-0.5-0.5-1.3-0.5-1.8,0
		l-8.5,8.5c-0.5,0.5-0.5,1.3,0,1.8l1.6,1.6l-1.3,1.3l0,0c-0.9-0.9-2.5-0.9-3.4,0l-5.9,5.9c-0.5,0.5-0.5,1.3,0,1.8l6.8,6.8
		c0.5,0.5,1.3,0.5,1.8,0l5.9-5.9c0.9-0.9,0.9-2.5,0-3.4l0,0l1.3-1.3l1.6,1.6c0.5,0.5,1.3,0.5,1.8,0l1.6-1.6l3.4,3.4
		c0.7,0.7,0.7,1.8,0,2.5l0,0c-0.7,0.7-0.7,1.8,0,2.5l5.7,5.7l10.3-10.3l-5.7-5.7C419,425.9,417.9,425.9,417.2,426.6z"/>
	<path class="st5" d="M441.8,465.7l6.7-6.7c1-1,1-2.6,0-3.6L438.1,445l-10.3,10.3l10.4,10.4C439.1,466.7,440.8,466.7,441.8,465.7z"
		/>
	<path class="st0" d="M457.9,438.1c4.2-4.2,4.8-11,1.9-17.1l-8.5,8.5L441,419.1l8.6-8.6c-6.1-2.9-13-2.4-17.3,1.8
		c-3.9,3.9-4.7,10-2.5,15.8c0.4,1,0.2,2-0.6,2.7l-24.5,24.5c-1,1-1,2.6,0,3.6l6.7,6.7c1,1,2.6,1,3.6,0l24.5-24.5
		c0.7-0.7,1.8-0.9,2.7-0.6C448,442.7,454,442,457.9,438.1z"/>
</g>
<g>
	<path class="st0" d="M635.2,439.3c-0.7-0.7-0.9-1.7-0.5-2.6c1.1-2.6,1.7-5.5,1.7-8.6c-0.1-12-9.9-21.7-21.9-21.6
		c-11.9,0.1-21.5,9.7-21.6,21.6c-0.1,11.9,9.6,21.8,21.5,21.9c3,0,5.9-0.6,8.6-1.7c0.9-0.4,1.9-0.2,2.6,0.5l16.9,16.9
		c0.9,0.9,2.4,0.9,3.4,0l6.2-6.2c0.9-0.9,0.9-2.4,0-3.4L635.2,439.3z M629.8,428.7c-0.3,8-6.8,14.5-14.7,14.7
		c-8.8,0.3-16-6.9-15.7-15.7c0.3-8,6.8-14.5,14.7-14.7C622.9,412.7,630.1,419.9,629.8,428.7z"/>
</g>
<path class="st0" d="M96.6,615.1c1.3,1.9,2.2,3.4,2.5,5c0.6,3,0.2,5.1,0.5,6.7c-1.6-0.3-3.8,0.1-6.7-0.5c-1.6-0.3-3.1-1.3-5-2.5
	l-0.9,0.9c4.6,4.8,8.3,5.6,11.6,5.8c2.6,0.2,5,0.2,5,0.2s0-2.3-0.2-5c-0.2-3.4-1-7-5.8-11.6L96.6,615.1z"/>
<path class="st0" d="M92.8,608.5c0.6-1.1,9.7-1.9,9.7-1.9l-6.4-8.2c-5.1-0.2-10.6,0.1-10.6,0.1c-5.4-6.6-8.8-12.2-13.1-16.2
	c-15.2-13.7-28.7-11.4-28.7-11.4s-2.3,13.5,11.5,28.7c3.9,4.3,9.6,7.7,16.2,13.1c0,0-0.3,5.6-0.1,10.6l8.2,6.4c0,0,0.7-9.2,1.9-9.7
	c1.1-0.6,4.2,2.1,4.8,1.8c0.6-0.4,3.9-2.5,4.9-3.6c1.1-1,3.3-4.3,3.6-4.9C95,612.6,92.2,609.6,92.8,608.5z M65.6,592.8
	c-2.1,2.1-5.5,2.1-7.5,0c-2.1-2.1-2.1-5.5,0-7.5c2.1-2.1,5.5-2.1,7.5,0C67.7,587.4,67.7,590.8,65.6,592.8z"/>
<path class="st3" d="M271.1,569.9h-43.4c-5.6,0-10.7,4.9-10.7,10.5v20.2c0,5.6,5.1,10.3,10.7,10.3h36.7c2.3,5,9.2,5.2,9.2,5.2
	c-2.2-1.3-2.7-3.5-2.6-5.4c5.6,0,10-4.6,10-10.2v-20.2C281,574.8,276.7,569.9,271.1,569.9z"/>
<ellipse class="st6" cx="231.1" cy="606.1" rx="28.2" ry="21.5"/>
<ellipse class="st0" cx="231.1" cy="606.1" rx="28.2" ry="21.5"/>
<path class="st0" d="M212.2,630.2c0,0,7.9,0.3,10.4-5.2c2.4-5.5-7.6-3.4-7.6-3.4S216.9,628.3,212.2,630.2z"/>
<g class="st2">
	<g>
		<g>
			<defs>
				<rect id="SVGID_1_" x="391.3" y="575.8" width="42.1" height="44.5"/>
			</defs>
			<clipPath id="SVGID_2_">
				<use xlink:href="#SVGID_1_"  style="overflow:visible;"/>
			</clipPath>
			<path class="st7" d="M403.3,600c0.3,2,2.3,12.3,6.2,17.6c0-0.3,0.1-0.5,0.2-0.8l1.5-4c0.6-1.5,2.1-1.5,2.7,0l1.5,4
				c0.1,0.3,0.2,0.6,0.2,0.8c4-5.3,20.5,2.7,17.4,2.7h-18.9h-1.4l0,0h-0.1h-0.1h-0.1l0,0h-1.5H392
				C389.1,620.3,394.3,606.5,403.3,600"/>
		</g>
		<g>
			<defs>
				<rect id="SVGID_3_" x="391.3" y="575.8" width="42.1" height="44.5"/>
			</defs>
			<clipPath id="SVGID_4_">
				<use xlink:href="#SVGID_3_"  style="overflow:visible;"/>
			</clipPath>
			<path class="st8" d="M412.6,620.3L412.6,620.3L412.6,620.3L412.6,620.3L412.6,620.3z"/>
		</g>
		<g>
			<defs>
				<rect id="SVGID_5_" x="391.3" y="575.8" width="42.1" height="44.5"/>
			</defs>
			<clipPath id="SVGID_6_">
				<use xlink:href="#SVGID_5_"  style="overflow:visible;"/>
			</clipPath>
			<path class="st9" d="M412.8,620.3C412.8,620.3,412.7,620.3,412.8,620.3L412.8,620.3L412.8,620.3z"/>
		</g>
		<g>
			<defs>
				<rect id="SVGID_7_" x="391.3" y="575.8" width="42.1" height="44.5"/>
			</defs>
			<clipPath id="SVGID_8_">
				<use xlink:href="#SVGID_7_"  style="overflow:visible;"/>
			</clipPath>
			<path class="st10" d="M415.5,616.8l-1.5-4c-0.6-1.5-2.1-1.5-2.7,0l-1.5,4c-0.1,0.3-0.2,0.5-0.2,0.8c-4-5.3-5.9-15.6-6.2-17.6
				v-0.1c1.9,2.9,4,5.3,6.1,6.6c-0.2,0.4-0.2,0.8,0.1,1.2l1.7,2.3c0.7,0.9,2.3,0.9,2.9,0l1.7-2.3c0.3-0.4,0.3-0.8,0-1.2
				c2.2-1.3,3.8,5.9-0.2,11.2C415.7,617.4,415.6,617.1,415.5,616.8"/>
		</g>
		<g>
			<defs>
				<rect id="SVGID_9_" x="391.3" y="575.8" width="42.1" height="44.5"/>
			</defs>
			<clipPath id="SVGID_10_">
				<use xlink:href="#SVGID_9_"  style="overflow:visible;"/>
			</clipPath>
			<path class="st11" d="M412.6,607.4h0.1C412.6,607.4,412.6,607.4,412.6,607.4c1,0,1.9-0.3,2.9-0.8c0.3-0.1,0.6,0,0.6,0.4
				c0,0.2-0.1,0.4-0.2,0.7l-1.7,2.3c-0.7,1-2.2,1-2.9,0l-1.7-2.3c-0.1-0.2-0.2-0.4-0.2-0.6c0-0.3,0.3-0.6,0.6-0.4
				C410.8,607.2,411.7,607.4,412.6,607.4L412.6,607.4"/>
		</g>
		<g>
			<defs>
				<rect id="SVGID_11_" x="391.3" y="575.8" width="42.1" height="44.5"/>
			</defs>
			<clipPath id="SVGID_12_">
				<use xlink:href="#SVGID_11_"  style="overflow:visible;"/>
			</clipPath>
			<path class="st12" d="M412.6,607.4L412.6,607.4c0.1,0,0.1,0,0.1,0H412.6z"/>
		</g>
		<g>
			<defs>
				<rect id="SVGID_13_" x="391.3" y="575.8" width="42.1" height="44.5"/>
			</defs>
			<clipPath id="SVGID_14_">
				<use xlink:href="#SVGID_13_"  style="overflow:visible;"/>
			</clipPath>
			<path class="st13" d="M412.6,605c-2.8,0-5.7-2.8-8.1-6.7c-2.2-3.5-3.4-9-2.3-14c2-9,9.5-8.5,10.4-8.4c0.3,0,8.4-0.9,10.4,8.4
				c1.1,5-0.1,10.6-2.3,14C418.3,602.2,415.4,605,412.6,605"/>
		</g>
		<g>
			<defs>
				<rect id="SVGID_15_" x="391.3" y="575.8" width="42.1" height="44.5"/>
			</defs>
			<clipPath id="SVGID_16_">
				<use xlink:href="#SVGID_15_"  style="overflow:visible;"/>
			</clipPath>
			<path class="st14" d="M412.6,605L412.6,605L412.6,605L412.6,605z"/>
		</g>
	</g>
</g>
<g class="st2">
	<g>
		<g>
			<defs>
				<rect id="SVGID_17_" x="425.9" y="575.8" width="42.1" height="44.5"/>
			</defs>
			<clipPath id="SVGID_18_">
				<use xlink:href="#SVGID_17_"  style="overflow:visible;"/>
			</clipPath>
			<path class="st15" d="M456,600c-0.3,2-2.3,12.3-6.2,17.6c0-0.3-0.1-0.5-0.2-0.8l-1.5-4c-0.6-1.5-2.1-1.5-2.7,0l-1.5,4
				c-0.1,0.3-0.2,0.6-0.2,0.8c-4-5.3-20.5,2.7-17.4,2.7h18.9h1.4l0,0h0.1h0.1h0.1l0,0h1.5h18.9C470.2,620.3,465.1,606.5,456,600"/>
		</g>
		<g>
			<defs>
				<rect id="SVGID_19_" x="425.9" y="575.8" width="42.1" height="44.5"/>
			</defs>
			<clipPath id="SVGID_20_">
				<use xlink:href="#SVGID_19_"  style="overflow:visible;"/>
			</clipPath>
			<path class="st16" d="M446.7,620.3C446.8,620.3,446.8,620.3,446.7,620.3L446.7,620.3L446.7,620.3L446.7,620.3z"/>
		</g>
		<g>
			<defs>
				<rect id="SVGID_21_" x="425.9" y="575.8" width="42.1" height="44.5"/>
			</defs>
			<clipPath id="SVGID_22_">
				<use xlink:href="#SVGID_21_"  style="overflow:visible;"/>
			</clipPath>
			<path class="st17" d="M446.6,620.3L446.6,620.3L446.6,620.3L446.6,620.3z"/>
		</g>
		<g>
			<defs>
				<rect id="SVGID_23_" x="425.9" y="575.8" width="42.1" height="44.5"/>
			</defs>
			<clipPath id="SVGID_24_">
				<use xlink:href="#SVGID_23_"  style="overflow:visible;"/>
			</clipPath>
			<path class="st18" d="M443.9,616.8l1.5-4c0.6-1.5,2.1-1.5,2.7,0l1.5,4c0.1,0.3,0.2,0.5,0.2,0.8c4-5.3,5.9-15.6,6.2-17.6v-0.1
				c-1.9,2.9-4,5.3-6.1,6.6c0.2,0.4,0.2,0.8-0.1,1.2l-1.7,2.3c-0.7,0.9-2.3,0.9-2.9,0l-1.7-2.3c-0.3-0.4-0.3-0.8,0-1.2
				c-2.2-1.3-3.8,5.9,0.2,11.2C443.7,617.4,443.8,617.1,443.9,616.8"/>
		</g>
		<g>
			<defs>
				<rect id="SVGID_25_" x="425.9" y="575.8" width="42.1" height="44.5"/>
			</defs>
			<clipPath id="SVGID_26_">
				<use xlink:href="#SVGID_25_"  style="overflow:visible;"/>
			</clipPath>
			<path class="st19" d="M446.8,607.4h-0.1C446.7,607.4,446.7,607.4,446.8,607.4c-1,0-1.9-0.3-2.9-0.8c-0.3-0.1-0.6,0-0.6,0.4
				c0,0.2,0.1,0.4,0.2,0.7l1.7,2.3c0.7,1,2.2,1,2.9,0l1.7-2.3c0.1-0.2,0.2-0.4,0.2-0.6c0-0.3-0.3-0.6-0.6-0.4
				C448.6,607.2,447.7,607.4,446.8,607.4L446.8,607.4"/>
		</g>
		<g>
			<defs>
				<rect id="SVGID_27_" x="425.9" y="575.8" width="42.1" height="44.5"/>
			</defs>
			<clipPath id="SVGID_28_">
				<use xlink:href="#SVGID_27_"  style="overflow:visible;"/>
			</clipPath>
			<path class="st20" d="M446.8,607.4L446.8,607.4c-0.1,0-0.1,0-0.1,0H446.8z"/>
		</g>
		<g>
			<defs>
				<rect id="SVGID_29_" x="425.9" y="575.8" width="42.1" height="44.5"/>
			</defs>
			<clipPath id="SVGID_30_">
				<use xlink:href="#SVGID_29_"  style="overflow:visible;"/>
			</clipPath>
			<path class="st21" d="M446.8,605c2.8,0,5.7-2.8,8.1-6.7c2.2-3.5,3.4-9,2.3-14c-2-9-9.5-8.5-10.4-8.4c-0.3,0-8.4-0.9-10.4,8.4
				c-1.1,5,0.1,10.6,2.3,14C441.1,602.2,443.9,605,446.8,605"/>
		</g>
		<g>
			<defs>
				<rect id="SVGID_31_" x="425.9" y="575.8" width="42.1" height="44.5"/>
			</defs>
			<clipPath id="SVGID_32_">
				<use xlink:href="#SVGID_31_"  style="overflow:visible;"/>
			</clipPath>
			<path class="st22" d="M446.8,605L446.8,605C446.8,605,446.7,605,446.8,605L446.8,605z"/>
		</g>
	</g>
</g>
<path class="st0" d="M440.9,602.6c-0.4,2.4-2.7,14.7-7.4,21c0-0.3-0.1-0.6-0.2-0.9l-1.8-4.8c-0.7-1.8-2.5-1.8-3.2,0l-1.8,4.8
	c-0.1,0.3-0.2,0.7-0.2,1c-4.8-6.3-7.1-18.8-7.5-21.1c-10.8,7.7-16.8,24.2-13.2,24.2H428h1.7l0,0h0.1h0.1h0.1l0,0h1.8h22.5
	C457.8,626.7,451.6,610.3,440.9,602.6"/>
<path class="st4" d="M429.8,626.7C429.8,626.7,429.9,626.8,429.8,626.7L429.8,626.7L429.8,626.7L429.8,626.7z"/>
<path class="st4" d="M429.7,626.8C429.7,626.8,429.7,626.7,429.7,626.8L429.7,626.8L429.7,626.8z"/>
<path class="st4" d="M426.4,622.6l1.8-4.8c0.7-1.8,2.5-1.8,3.2,0l1.8,4.8c0.1,0.3,0.2,0.6,0.2,0.9c4.7-6.3,7-18.6,7.4-21v-0.1
	c-2.2,3.5-4.7,6.3-7.2,7.8c0.3,0.4,0.3,1-0.1,1.5l-2,2.8c-0.8,1.1-2.7,1.1-3.5,0l-2-2.8c-0.4-0.5-0.3-1.1-0.1-1.5
	c-2.6-1.6-5.1-4.5-7.4-8.1l0,0c0,0,0,0.1,0.1,0.4c0.4,2.3,2.8,14.8,7.5,21.1C426.2,623.3,426.3,622.9,426.4,622.6"/>
<path class="st0" d="M429.9,611.5h-0.1C429.8,611.5,429.8,611.5,429.9,611.5c-1.2,0-2.3-0.3-3.4-0.9c-0.3-0.2-0.7,0.1-0.7,0.4
	s0.1,0.5,0.3,0.8l2,2.8c0.9,1.2,2.6,1.2,3.5,0l2-2.8c0.2-0.2,0.2-0.5,0.3-0.7c0-0.4-0.4-0.7-0.7-0.5
	C432,611.1,430.9,611.4,429.9,611.5L429.9,611.5"/>
<path class="st23" d="M429.9,611.5L429.9,611.5c-0.1,0-0.1,0-0.1,0H429.9z"/>
<path class="st0" d="M429.8,608.6c3.4,0,6.8-3.4,9.7-8c2.6-4.1,4-10.8,2.7-16.7c-2.4-10.7-11.3-10.1-12.4-10c-0.3,0-10-1.1-12.4,10
	c-1.3,5.9,0.1,12.6,2.7,16.7C423.1,605.2,426.5,608.5,429.8,608.6"/>
<path class="st24" d="M429.9,608.6L429.9,608.6c-0.1,0-0.1,0-0.1,0H429.9z"/>
</svg>
