<?xml version="1.0" encoding="utf-8"?>
<!-- Generator: Adobe Illustrator 19.0.1, SVG Export Plug-In . SVG Version: 6.00 Build 0)  -->
<svg version="1.1" id="Layer_1" xmlns="http://www.w3.org/2000/svg" xmlns:xlink="http://www.w3.org/1999/xlink" x="0px" y="0px"
	 viewBox="0 0 13 19" style="enable-background:new 0 0 13 19;" xml:space="preserve">
<style type="text/css">
	.st0{fill:#FFFFFF;}
</style>
<path class="st0" d="M9.7,6.3c0-0.9-0.3-1.6-0.9-2.2C8.1,3.5,7.4,3.2,6.5,3.2S4.9,3.5,4.3,4.1S3.3,5.5,3.3,6.3S3.6,8,4.3,8.6
	s1.4,0.9,2.2,0.9s1.6-0.3,2.2-0.9C9.4,8,9.7,7.2,9.7,6.3z M12.8,6.3c0,0.9-0.1,1.6-0.4,2.2l-4.5,9.6c-0.1,0.3-0.3,0.5-0.6,0.6
	C7.1,18.9,6.8,19,6.5,19s-0.6-0.1-0.8-0.2c-0.3-0.2-0.5-0.4-0.6-0.6L0.6,8.5C0.3,8,0.2,7.2,0.2,6.3c0-1.7,0.6-3.2,1.9-4.5
	S4.8,0,6.5,0S9.7,0.6,11,1.9S12.8,4.6,12.8,6.3z"/>
</svg>
