<?xml version="1.0" encoding="utf-8"?>
<!-- Generator: Adobe Illustrator 19.0.1, SVG Export Plug-In . SVG Version: 6.00 Build 0)  -->
<svg version="1.1" id="Layer_1" xmlns="http://www.w3.org/2000/svg" xmlns:xlink="http://www.w3.org/1999/xlink" x="0px" y="0px"
	 viewBox="-261 104 43.5 19.8" style="enable-background:new -261 104 43.5 19.8;" xml:space="preserve">
<style type="text/css">
	.st0{fill:#2D509F;}
	.st1{fill:#96D3DA;}
</style>
<g>
	<path class="st0" d="M-252.5,120.8c-4.6,0-8.3-3.7-8.3-8.3s3.7-8.3,8.3-8.3s8.3,3.7,8.3,8.3S-247.9,120.8-252.5,120.8z M-252.5,109
		c-1.9,0-3.5,1.6-3.5,3.5s1.6,3.5,3.5,3.5s3.5-1.6,3.5-3.5S-250.6,109-252.5,109z"/>
</g>
<g>
	<rect x="-249" y="112.5" class="st0" width="4.8" height="11.2"/>
</g>
<g>
	<path class="st1" d="M-252.5,119.1c-3.7,0-6.7-3-6.7-6.7c0-3.7,3-6.7,6.7-6.7s6.7,3,6.7,6.7C-245.8,116.1-248.8,119.1-252.5,119.1z
		 M-252.5,107.3c-2.8,0-5.1,2.3-5.1,5.1s2.3,5.1,5.1,5.1s5.1-2.3,5.1-5.1S-249.7,107.3-252.5,107.3z"/>
</g>
<g>
	<rect x="-247.4" y="112.4" class="st1" width="1.6" height="11.2"/>
</g>
<g>
	<path class="st0" d="M-237.6,120.9c-4.7,0-8.3-3.6-8.3-8.3s3.6-8.3,8.3-8.3v4.8c-2,0-3.5,1.5-3.5,3.5s1.5,3.5,3.5,3.5
		c1.9,0,3.5-1.6,3.5-3.5h4.8C-229.3,117.1-233,120.9-237.6,120.9z"/>
</g>
<g>
	<path class="st0" d="M-225.9,120.9v-4.8c2,0,3.5-1.5,3.5-3.5c0-2-1.5-3.5-3.4-3.5c-1.9,0-3.5,1.6-3.5,3.5h-4.8
		c0-4.6,3.7-8.3,8.3-8.3c4.6,0,8.2,3.6,8.2,8.3S-221.2,120.9-225.9,120.9z"/>
</g>
<g>
	<path class="st1" d="M-237.6,119.3c-3.8,0-6.7-2.9-6.7-6.7s2.9-6.7,6.7-6.7v1.6c-2.9,0-5.1,2.2-5.1,5.1c0,2.9,2.2,5.1,5.1,5.1
		c2.8,0,5.1-2.3,5.1-5.1h1.6C-230.9,116.3-233.9,119.3-237.6,119.3z"/>
</g>
<g>
	<path class="st1" d="M-225.9,119.3v-1.6c2.9,0,5.1-2.2,5.1-5.1c0-2.9-2.1-5.1-5-5.1c-2.8,0-5.1,2.3-5.1,5.1h-1.6
		c0-3.7,3-6.7,6.7-6.7c3.7,0,6.6,2.9,6.6,6.7S-222.1,119.3-225.9,119.3z"/>
</g>
</svg>
