<?xml version="1.0" encoding="utf-8"?>
<!-- Generator: Adobe Illustrator 19.0.1, SVG Export Plug-In . SVG Version: 6.00 Build 0)  -->
<svg version="1.1" id="Layer_1" xmlns="http://www.w3.org/2000/svg" xmlns:xlink="http://www.w3.org/1999/xlink" x="0px" y="0px"
	 viewBox="0 0 13 13.3" style="enable-background:new 0 0 13 13.3;" xml:space="preserve">
<style type="text/css">
	.st0{fill:#FFFFFF;}
</style>
<path class="st0" d="M12.3,9.2c-0.9,0-1.8-0.1-2.6-0.4C9.5,8.7,9.2,8.8,9,9l-1.6,1.6c-2.1-1-3.7-2.7-4.8-4.8l1.6-1.6
	C4.4,4,4.5,3.7,4.4,3.5C4.1,2.7,4,1.8,4,0.9c0-0.4-0.3-0.7-0.7-0.7H0.7C0.3,0.2,0,0.5,0,0.9c0,6.8,5.5,12.3,12.3,12.3
	c0.4,0,0.7-0.3,0.7-0.7V9.9C13,9.5,12.7,9.2,12.3,9.2z M6.5,0.2v7.2l2.2-2.2H13V0.2H6.5z"/>
</svg>
