<?xml version="1.0" encoding="utf-8"?>
<!-- Generator: Adobe Illustrator 19.0.0, SVG Export Plug-In . SVG Version: 6.00 Build 0)  -->
<svg version="1.1" id="Layer_1" xmlns="http://www.w3.org/2000/svg" xmlns:xlink="http://www.w3.org/1999/xlink" x="0px" y="0px"
	 viewBox="-166 320.7 263 233" style="enable-background:new -166 320.7 263 233;" xml:space="preserve">
<style type="text/css">
	.st0{fill:#FFFFFF;}
	.st1{fill:#EA622B;}
	.st2{fill:#266590;}
	.st3{fill:none;stroke:#2696CD;stroke-width:12;stroke-miterlimit:10;}
	.st4{fill:none;stroke:#266690;stroke-width:4;stroke-miterlimit:10;}
	.st5{fill:none;stroke:#FDC00F;stroke-width:4.7871;stroke-miterlimit:10;}
</style>
<path class="st0" d="M-154.8,464.5c0-0.9-0.3-1.6-0.9-2.2c-0.7-0.6-1.4-0.9-2.3-0.9c-0.9,0-1.6,0.3-2.2,0.9c-0.6,0.6-1,1.4-1,2.2
	c0,0.8,0.3,1.7,1,2.3c0.7,0.6,1.4,0.9,2.2,0.9s1.6-0.3,2.2-0.9C-155.1,466.2-154.8,465.4-154.8,464.5z M-151.7,464.5
	c0,0.9-0.1,1.6-0.4,2.2l-4.5,9.6c-0.1,0.3-0.3,0.5-0.6,0.6c-0.2,0.2-0.5,0.3-0.8,0.3s-0.6-0.1-0.8-0.2c-0.3-0.2-0.5-0.4-0.6-0.6
	l-4.5-9.7c-0.3-0.5-0.4-1.3-0.4-2.2c0-1.7,0.6-3.2,1.9-4.5c1.3-1.3,2.7-1.8,4.4-1.8s3.2,0.6,4.5,1.9
	C-152.2,461.4-151.7,462.8-151.7,464.5z"/>
<circle class="st1" cx="-145.5" cy="407.8" r="5.5"/>
<circle class="st1" cx="-158.9" cy="407.8" r="5.5"/>
<path class="st1" d="M-164.4,407.6c0,0-0.8-10.1,10.6-17.2l2.2,3.3c0,0-6.8,3.7-7.2,8.7"/>
<path class="st1" d="M-151.2,407.8c0,0-0.8-10.4,10.6-17.5l2.2,3.3c0,0-6.8,3.7-7.2,8.7"/>
<circle class="st1" cx="-157.6" cy="438.6" r="5.5"/>
<circle class="st1" cx="-144.3" cy="438.6" r="5.5"/>
<path class="st1" d="M-138.7,438.8c0,0,0.8,10.1-10.6,17.2l-2.2-3.3c0,0,6.8-3.7,7.2-8.7"/>
<path class="st1" d="M-152,438.6c0,0,0.8,10.4-10.6,17.5l-2.2-3.3c0,0,6.8-3.7,7.2-8.7"/>
<path class="st2" d="M-111.1,407.6c0,0-1.1-1.8-3.3-0.5s-2.3,1.8-1.7,3.3s3.6,9,3.6,9s1.4,2.4,3.2,0s24.6-33,24.6-33
	s-3.9-0.9-6.8,2.2s-17.8,23.1-17.8,23.1L-111.1,407.6z"/>
<g>
	<path class="st2" d="M-152,512.4L-152,512.4c0.2,0,0.4-0.1,0.6-0.2l0,0l0,0l0.5-0.4l11.8-9.8l-0.1-0.1h-25.7h-0.1l12.4,10.2
		C-152.5,512.3-152.3,512.4-152,512.4z M-165.1,503.3v14.5l8.9-7.2L-165.1,503.3z M-147.9,510.7l8.9,7.1v-14.4L-147.9,510.7z
		 M-150.7,513c-0.4,0.3-0.8,0.4-1.3,0.4s-0.9-0.2-1.3-0.4l-2-1.7l-9.8,7.9l0,0c0,0.1,0.1,0.1,0.1,0.1h25.7c0.1,0,0.1-0.1,0.1-0.1
		l0,0l-9.7-7.8L-150.7,513z"/>
</g>
<g id="Page-1">
	<g id="Core" transform="translate(-45.000000, -423.000000)">
		<g id="settings-phone" transform="translate(45.000000, 423.000000)">
			<path id="Shape" class="st0" d="M-155.7,540.2h-1.9v1.9h1.9V540.2L-155.7,540.2z M-151.9,540.2h-1.9v1.9h1.9V540.2L-151.9,540.2z
				 M-149.1,546.4c-1.1,0-2.3-0.2-3.4-0.6c-0.3-0.1-0.7,0-0.9,0.2l-2.1,2.1c-2.6-1.3-4.8-3.6-6.2-6.2l2.1-2.1
				c0.3-0.3,0.4-0.7,0.2-0.9c-0.3-1-0.5-2.2-0.5-3.3c0-0.6-0.4-0.9-0.9-0.9h-3.3c-0.6,0-0.9,0.4-0.9,0.9c0,8.9,7.2,16.1,16.1,16.1
				c0.6,0,0.9-0.4,0.9-0.9v-3.3C-148.1,546.7-148.5,546.4-149.1,546.4L-149.1,546.4z M-150,540.2v1.9h1.9v-1.9H-150L-150,540.2z"/>
		</g>
	</g>
</g>
<path class="st3" d="M-125,345.8c0,9.3-7.6,16.9-16.9,16.9s-16.9-7.6-16.9-16.9s7.6-16.9,16.9-16.9S-125,336.5-125,345.8z"/>
<line class="st3" x1="-125" y1="345.8" x2="-125" y2="377.6"/>
<path class="st4" d="M-125,345.4c0,9.3-7.6,16.9-16.9,16.9s-16.9-7.6-16.9-16.9s7.6-16.9,16.9-16.9S-125,336.1-125,345.4z"/>
<line class="st4" x1="-125" y1="345.4" x2="-125" y2="377.5"/>
<path class="st3" d="M-65.7,362.6c9.3,0,16.8-7.5,16.8-16.8S-56.4,329-65.7,329s-16.8,7.5-16.8,16.8s-7.5,16.8-16.8,16.8
	s-16.8-7.5-16.8-16.8s7.5-16.8,16.8-16.8"/>
<path class="st4" d="M-65.7,362.6c9.3,0,16.8-7.5,16.8-16.8S-56.4,329-65.7,329s-16.8,7.5-16.8,16.8s-7.5,16.8-16.8,16.8
	s-16.8-7.5-16.8-16.8s7.5-16.8,16.8-16.8"/>
<polyline class="st5" points="95.2,322.6 59.6,353.5 95.6,384.6 "/>
</svg>
