<?xml version="1.0" encoding="utf-8"?>
<!-- Generator: Adobe Illustrator 19.0.0, SVG Export Plug-In . SVG Version: 6.00 Build 0)  -->
<svg version="1.1" id="Layer_1" xmlns="http://www.w3.org/2000/svg" xmlns:xlink="http://www.w3.org/1999/xlink" x="0px" y="0px"
	 viewBox="0 0 1029.6 338.1" style="enable-background:new 0 0 1029.6 338.1;" xml:space="preserve">
<style type="text/css">
	.st0{fill:none;stroke:#FFFFFF;stroke-width:2;stroke-miterlimit:10;stroke-dasharray:12,10;}
	.st1{fill:none;stroke:#FFFFFF;stroke-width:2;stroke-miterlimit:10;}
	.st2{fill:none;stroke:#FFFFFF;stroke-width:2;stroke-miterlimit:10;stroke-dasharray:11.9392,9.9493;}
	.st3{fill:#A5D9E7;}
	.st4{fill:#0E303F;}
	.st5{fill:#FFFFFF;}
	.st6{fill:#2597CC;}
	.st7{fill:#2178A2;}
	.st8{fill:#EB622B;}
	.st9{fill:#EDC210;}
	.st10{fill:url(#XMLID_202_);}
	.st11{fill:#E3E2E2;}
	.st12{fill:#FDC60C;}
	.st13{fill:#D1EBFA;}
	.st14{fill:#DE3E19;}
	.st15{fill:#FBBE14;}
	.st16{fill:#F49921;}
	.st17{fill:#A9B1BA;}
</style>
<path id="XMLID_53_" class="st0" d="M445.3,244.7c0,0-98.3-87.3-246.3-47.3S9.4,181.4,1.6,123.1c0,0-9.3-74.4,54.7-87.1"/>
<path id="XMLID_262_" class="st0" d="M440.3,213.4c0,0-194.7,96-288,85.3c-93.3-10.7-112-162.7-12-172"/>
<g id="XMLID_57_">
	<g id="XMLID_211_">
		<path id="XMLID_214_" class="st1" d="M587.9,199.1c0,0,2-0.2,6-0.4"/>
		<path id="XMLID_213_" class="st2" d="M603.8,198.5c26.7,0.1,85.8,4.7,167.8,35.6c114,43,216.1,29.2,246.7-46.7
			c32.6-80.9-43-131.1-70.9-146.4"/>
		<path id="XMLID_212_" class="st1" d="M943,38.7c-3.4-1.7-5.4-2.6-5.4-2.6"/>
	</g>
</g>
<path id="XMLID_260_" class="st0" d="M587.9,274.1c0,0,126.4-125.7,322.4-103.8"/>
<path id="XMLID_261_" class="st0" d="M587.9,236.1c0,0,31.7-14.6,171.7,41.7c0,0,102,26.3,84.7-82.4c0,0-0.7-36.7-42-64.7"/>
<path id="XMLID_197_" class="st3" d="M931.7,167.3h-2.4c-0.6,0-1.2-0.4-1.3-1l-0.4-1.1c-0.2-0.5-0.1-1.2,0.3-1.6l1.7-1.7
	c0.4-0.4,0.4-1,0-1.4l-2.6-2.6c-0.4-0.4-1-0.4-1.4,0l-1.7,1.7c-0.4,0.4-1.1,0.5-1.6,0.3l-1.1-0.4c-0.5-0.2-1-0.8-1-1.3v-2.4
	c0-0.6-0.5-1-1-1h-3.7c-0.6,0-1,0.5-1,1v2.4c0,0.6-0.4,1.2-1,1.3l-1.1,0.4c-0.5,0.3-1.2,0.1-1.6-0.3l-1.7-1.7c-0.4-0.4-1-0.4-1.4,0
	l-2.6,2.6c-0.4,0.4-0.4,1,0,1.4l1.7,1.7c0.4,0.4,0.5,1.1,0.3,1.6l-0.4,1.1c-0.2,0.5-0.8,1-1.3,1h-2.4c-0.6,0-1,0.5-1,1v3.7
	c0,0.6,0.5,1,1,1h2.4c0.6,0,1.2,0.4,1.3,1l0.4,1.1c0.2,0.5,0.1,1.2-0.3,1.6l-1.7,1.7c-0.4,0.4-0.4,1,0,1.4l2.6,2.6
	c0.4,0.4,1,0.4,1.4,0l1.7-1.7c0.4-0.4,1.1-0.5,1.6-0.3l1.1,0.4c0.5,0.2,1,0.8,1,1.3v2.4c0,0.6,0.5,1,1,1h3.7c0.6,0,1-0.5,1-1v-2.4
	c0-0.6,0.4-1.2,1-1.3l1.1-0.4c0.5-0.2,1.2-0.1,1.6,0.3l1.7,1.7c0.4,0.4,1,0.4,1.4,0l2.6-2.6c0.4-0.4,0.4-1,0-1.4l-1.7-1.7
	c-0.4-0.4-0.5-1.1-0.3-1.6l0.4-1.1c0.2-0.5,0.8-1,1.3-1h2.4c0.6,0,1-0.5,1-1v-3.7C932.7,167.7,932.3,167.3,931.7,167.3z
	 M917.2,175.1c-2.7,0-4.9-2.2-4.9-4.9c0-2.7,2.2-4.9,4.9-4.9c2.7,0,4.9,2.2,4.9,4.9C922.1,172.9,919.9,175.1,917.2,175.1z"/>
<g id="XMLID_190_">
	<g id="XMLID_191_">
		<path id="XMLID_56_" class="st4" d="M591.9,338.1V143.8c0-13.2-10.7-23.9-23.9-23.9H458.7c-13.2,0-24,10.7-24,23.9v194.3"/>
		<path id="XMLID_55_" class="st4" d="M591.9,338.1v-191c0-13.2-10.7-23.9-23.9-23.9H514v215"/>
		<path id="XMLID_194_" class="st5" d="M492.7,141.6h41.2c1.2,0,2.1,0.9,2.1,2.1c0,1.2-0.9,2.1-2.1,2.1h-41.2
			c-1.2,0-2.1-0.9-2.1-2.1C490.6,142.6,491.6,141.6,492.7,141.6z"/>
		<polyline id="XMLID_125_" class="st6" points="581.4,338.1 581.4,170.2 445.3,170.2 445.3,338.1 		"/>
		<polyline id="XMLID_58_" class="st7" points="581.4,338.1 581.4,170.2 468,338.1 		"/>
	</g>
</g>
<g id="XMLID_121_">
	<circle id="XMLID_122_" class="st8" cx="932.7" cy="32" r="25.6"/>
</g>
<g id="XMLID_99_">
	<rect id="XMLID_120_" x="620.4" y="185.1" class="st4" width="107" height="3.8"/>
	<rect id="XMLID_119_" x="620.4" y="185.1" class="st9" width="67.8" height="3.8"/>
	<g id="XMLID_112_">
		<g id="XMLID_117_">
			<linearGradient id="XMLID_202_" gradientUnits="userSpaceOnUse" x1="688.2056" y1="189.9711" x2="688.2056" y2="184.008">
				<stop  offset="0" style="stop-color:#E8E8E8"/>
				<stop  offset="1" style="stop-color:#FFFFFF"/>
			</linearGradient>
			<circle id="XMLID_118_" class="st10" cx="688.2" cy="187" r="3"/>
		</g>
		<g id="XMLID_113_">
			<path id="XMLID_114_" class="st11" d="M688.2,190.1c-1.7,0-3.1-1.4-3.1-3.1c0-1.7,1.4-3.1,3.1-3.1c1.7,0,3.1,1.4,3.1,3.1
				C691.3,188.7,689.9,190.1,688.2,190.1L688.2,190.1z M688.2,184.2c-1.6,0-2.8,1.3-2.8,2.8c0,1.6,1.3,2.8,2.8,2.8
				c1.6,0,2.8-1.3,2.8-2.8C691,185.4,689.8,184.2,688.2,184.2L688.2,184.2z"/>
		</g>
	</g>
	<g id="XMLID_109_">
		<rect id="XMLID_111_" x="677.9" y="198.4" class="st12" width="21.7" height="15.8"/>
		
			<rect id="XMLID_110_" x="685.3" y="196.9" transform="matrix(0.707 0.7072 -0.7072 0.707 343.4832 -428.3954)" class="st12" width="6.9" height="6.9"/>
	</g>
	<g id="XMLID_100_">
		<g id="XMLID_101_">
			<path id="XMLID_107_" class="st5" d="M682.8,208.5h1.3v-4.1c0-0.1,0-0.2,0-0.4l-1.1,0.9c0,0-0.1,0-0.1,0c0,0-0.1,0-0.1,0
				c0,0-0.1,0-0.1,0c0,0-0.1,0-0.1-0.1l-0.2-0.3l1.8-1.5h0.6v5.4h1.2v0.6h-3.2V208.5z"/>
			<path id="XMLID_105_" class="st5" d="M689,203c0.3,0,0.5,0,0.7,0.1c0.2,0.1,0.4,0.2,0.6,0.3c0.2,0.1,0.3,0.3,0.4,0.5
				c0.1,0.2,0.1,0.4,0.1,0.7c0,0.2,0,0.4-0.1,0.6c-0.1,0.2-0.2,0.4-0.3,0.5c-0.1,0.2-0.2,0.3-0.4,0.5c-0.1,0.2-0.3,0.3-0.5,0.5
				l-1.6,1.6c0.1,0,0.2-0.1,0.3-0.1c0.1,0,0.2,0,0.3,0h2c0.1,0,0.1,0,0.2,0.1c0,0,0.1,0.1,0.1,0.2v0.5h-4v-0.3c0-0.1,0-0.1,0-0.2
				c0-0.1,0.1-0.1,0.1-0.2l1.9-1.9c0.2-0.2,0.3-0.3,0.4-0.5c0.1-0.1,0.2-0.3,0.3-0.4c0.1-0.2,0.2-0.3,0.2-0.5c0-0.2,0.1-0.3,0.1-0.5
				c0-0.2,0-0.3-0.1-0.5s-0.1-0.2-0.2-0.3c-0.1-0.1-0.2-0.2-0.3-0.2c-0.1,0-0.3-0.1-0.4-0.1c-0.2,0-0.3,0-0.4,0.1
				c-0.1,0-0.2,0.1-0.3,0.2c-0.1,0.1-0.2,0.2-0.3,0.3s-0.1,0.2-0.1,0.4c0,0.1-0.1,0.1-0.1,0.2c0,0-0.1,0.1-0.2,0.1c0,0,0,0,0,0
				c0,0,0,0-0.1,0l-0.4-0.1c0-0.3,0.1-0.5,0.2-0.7c0.1-0.2,0.3-0.4,0.4-0.5c0.2-0.1,0.4-0.2,0.6-0.3C688.5,203,688.7,203,689,203z"
				/>
			<path id="XMLID_102_" class="st5" d="M695.9,206.1c0,0.5-0.1,1-0.2,1.4c-0.1,0.4-0.3,0.7-0.5,0.9c-0.2,0.3-0.4,0.4-0.7,0.6
				c-0.3,0.1-0.5,0.2-0.9,0.2c-0.3,0-0.6-0.1-0.9-0.2c-0.3-0.1-0.5-0.3-0.7-0.6c-0.2-0.3-0.3-0.6-0.5-0.9c-0.1-0.4-0.2-0.8-0.2-1.4
				c0-0.5,0.1-1,0.2-1.4c0.1-0.4,0.3-0.7,0.5-1c0.2-0.3,0.4-0.4,0.7-0.6c0.3-0.1,0.5-0.2,0.9-0.2c0.3,0,0.6,0.1,0.9,0.2
				c0.3,0.1,0.5,0.3,0.7,0.6c0.2,0.3,0.3,0.6,0.5,1C695.8,205.1,695.9,205.5,695.9,206.1z M695.1,206.1c0-0.5,0-0.8-0.1-1.1
				c-0.1-0.3-0.2-0.6-0.3-0.7c-0.1-0.2-0.3-0.3-0.4-0.4c-0.2-0.1-0.3-0.1-0.5-0.1c-0.2,0-0.4,0-0.5,0.1c-0.2,0.1-0.3,0.2-0.4,0.4
				c-0.1,0.2-0.2,0.4-0.3,0.7c-0.1,0.3-0.1,0.7-0.1,1.1c0,0.5,0,0.8,0.1,1.1c0.1,0.3,0.2,0.6,0.3,0.7c0.1,0.2,0.3,0.3,0.4,0.4
				c0.2,0.1,0.3,0.1,0.5,0.1c0.2,0,0.4,0,0.5-0.1c0.2-0.1,0.3-0.2,0.4-0.4c0.1-0.2,0.2-0.4,0.3-0.7
				C695.1,206.9,695.1,206.5,695.1,206.1z"/>
		</g>
	</g>
</g>
<rect id="XMLID_98_" x="799.1" y="106.9" class="st4" width="39.8" height="39.8"/>
<g id="XMLID_91_">
	<rect id="XMLID_97_" x="810.4" y="118.6" class="st6" width="3.8" height="3.8"/>
	<rect id="XMLID_96_" x="810.4" y="124.9" class="st6" width="3.8" height="3.8"/>
	<rect id="XMLID_95_" x="810.4" y="131.2" class="st6" width="3.8" height="3.8"/>
	<polygon id="XMLID_94_" class="st6" points="825.3,118.6 824.1,118.6 821,118.6 817.9,118.6 817.2,118.6 817.2,122.4 817.9,122.4 
		821,122.4 824.1,122.4 825.3,122.4 827.9,122.4 827.9,118.6 	"/>
	<polygon id="XMLID_93_" class="st6" points="824.1,124.9 821,124.9 817.9,124.9 817.2,124.9 817.2,128.7 817.9,128.7 821,128.7 
		824.1,128.7 825.3,128.7 827.9,128.7 827.9,124.9 825.3,124.9 	"/>
	<polygon id="XMLID_92_" class="st6" points="824.1,131.2 821,131.2 817.9,131.2 817.2,131.2 817.2,135 817.9,135 821,135 
		824.1,135 825.3,135 827.9,135 827.9,131.2 825.3,131.2 	"/>
</g>
<path id="XMLID_87_" class="st5" d="M937.6,20.6c-2.4,0-4.5,1.6-5.6,3.8c-1.2-2.2-3.3-3.7-5.7-3.7c-3.7,0-6.6,3.5-6.5,7.8
	c0,0.8,0.1,1.6,0.4,2.4c0.5,2.4,4.2,6.5,7.7,9.7c1.7,1.6,4.5,3.8,4.5,3.8c1.2-0.9,2.7-2.3,4.4-3.9c3.3-3.3,7-7.4,7.4-9.9
	c0.2-0.8,0.3-1.6,0.3-2.4C944.3,24,941.3,20.6,937.6,20.6z"/>
<g id="XMLID_72_">
	<circle id="XMLID_86_" class="st13" cx="182.4" cy="296.1" r="28.7"/>
	<path id="XMLID_85_" class="st3" d="M196.3,283.8C196.3,283.8,196.3,283.8,196.3,283.8c-0.3-0.2-0.6-0.3-1-0.2l-9.5,2.3l0,0l-7,1.7
		l-5.6-5.6v0h-1.4v8c-0.2,0-0.3,0-0.5,0c-0.6,0-1.2,0.2-1.8,0.4c-1.4,0.6-2.7,2-2.5,3.3c0.1,0.5,0.4,0.8,0.8,1l7.4,7.4
		c-0.4,0.1-0.8,0.3-1.1,0.4c-2.3,1.1-4.5,3.3-4.1,5.5c0.1,0.6,0.4,1,0.8,1.4l0,0l15.2,15.2c13.4-1.6,24-12.5,25.1-26.1L196.3,283.8
		L196.3,283.8z"/>
	<g id="XMLID_73_">
		<g id="XMLID_82_">
			<path id="XMLID_84_" class="st14" d="M196.7,300.1L196.7,300.1l0-10.2v-5.2c0-0.3-0.2-0.7-0.4-0.9c-0.3-0.2-0.6-0.3-1-0.2
				l-16.7,4c-0.5,0.1-0.9,0.6-0.9,1.1v5.2v8c-0.2,0-0.5-0.1-0.8-0.1c-0.9,0-1.9,0.3-2.9,0.7c-2.3,1.1-4.5,3.3-4.1,5.5
				c0.2,1.3,1.4,2.1,3,2.1c0.9,0,1.9-0.3,2.9-0.7c2.2-1,4.3-3.2,4.1-5.3h0v-9.3l14.4-3.5v6.5c-0.2,0-0.5-0.1-0.8-0.1
				c-0.9,0-1.9,0.3-2.9,0.7c-2.3,1.1-4.5,3.3-4.1,5.5c0.2,1.3,1.4,2.1,3,2.1c0.9,0,1.9-0.3,2.9-0.7
				C194.8,304.4,196.9,302.2,196.7,300.1z"/>
			<path id="XMLID_83_" class="st8" d="M177.8,288.7v5.2v8c-0.2,0-0.5-0.1-0.8-0.1c-0.9,0-1.9,0.3-2.9,0.7c-2.3,1.1-4.5,3.3-4.1,5.5
				c0.2,1.3,1.4,2.1,3,2.1c0.9,0,1.9-0.3,2.9-0.7c2.2-1,4.3-3.2,4.1-5.3h0v-9.3l5.7-1.4v-7.6l-7.1,1.7
				C178.2,287.8,177.8,288.2,177.8,288.7z"/>
		</g>
		<g id="XMLID_74_">
			<g id="XMLID_77_">
				<path id="XMLID_81_" class="st14" d="M172.5,291.4c0.2,0.8-0.8,2-2.1,2.6c-1.3,0.6-2.5,0.5-2.6-0.3c-0.2-0.8,0.8-2,2.1-2.6
					C171.1,290.4,172.3,290.6,172.5,291.4z"/>
				<path id="XMLID_78_" class="st14" d="M168.9,295c-1,0-1.7-0.5-1.8-1.3c-0.2-1.3,1.1-2.7,2.5-3.3c0.6-0.3,1.2-0.4,1.8-0.4
					c1,0,1.7,0.5,1.8,1.3c0.2,1.3-1.1,2.7-2.5,3.3C170.1,294.9,169.4,295,168.9,295L168.9,295z M171.3,291.3c-0.3,0-0.8,0.1-1.2,0.3
					c-1.1,0.5-1.8,1.5-1.7,1.8c0,0.1,0.3,0.2,0.5,0.2c0.3,0,0.8-0.1,1.2-0.3c1.1-0.5,1.8-1.5,1.7-1.8
					C171.8,291.4,171.5,291.3,171.3,291.3L171.3,291.3z"/>
			</g>
			<g id="XMLID_75_">
				<polygon id="XMLID_76_" class="st14" points="173.2,291.4 171.8,291.4 171.8,282 173.2,282 173.2,291.4 				"/>
			</g>
		</g>
	</g>
</g>
<g id="XMLID_59_">
	<g id="XMLID_67_">
		<circle id="XMLID_71_" class="st4" cx="232" cy="189.8" r="13.9"/>
		<path id="XMLID_68_" class="st5" d="M232,204.8c-8.3,0-15-6.7-15-15c0-8.3,6.7-15,15-15s15,6.7,15,15
			C247,198.1,240.3,204.8,232,204.8L232,204.8z M232,177.1c-7,0-12.7,5.7-12.7,12.7c0,7,5.7,12.7,12.7,12.7s12.7-5.7,12.7-12.7
			C244.7,182.8,239,177.1,232,177.1L232,177.1z"/>
	</g>
	<g id="XMLID_63_">
		<path id="XMLID_64_" class="st5" d="M232,199.4c-5.3,0-9.6-4.3-9.6-9.6c0-5.3,4.3-9.6,9.6-9.6c5.3,0,9.6,4.3,9.6,9.6
			C241.6,195.1,237.3,199.4,232,199.4L232,199.4z M232,181.7c-4.5,0-8.1,3.6-8.1,8.1c0,4.5,3.6,8.1,8.1,8.1s8.1-3.6,8.1-8.1
			C240.1,185.3,236.5,181.7,232,181.7L232,181.7z"/>
	</g>
	<path id="XMLID_62_" class="st15" d="M257.7,205c-1.6,0-2.9,1.1-3.4,2.5c-0.6-0.1-1.1-0.2-1.7-0.3v-2.4c0-1.9-1.6-3.5-3.5-3.5
		c-1.9,0-3.5,1.6-3.5,3.5v2.4h-1.7v-5.6c0-1.9-1.6-3.5-3.5-3.5c-1.9,0-3.5,1.6-3.5,3.5v5.6c-0.6,0-1.1,0.1-1.7,0.2v-16.6
		c0-1.9-1.6-3.5-3.5-3.5c-1.9,0-3.5,1.6-3.5,3.5v25.1c0,0.1,0,0.3,0,0.4v8.7l-1.6-1.6v-7c0-2.9-2.3-5.2-5.2-5.2h-1.7
		c-0.1,0-0.1,0-0.2,0v6.5c0,0,0,0,0,0v8.6l11.6,11.3c1.6,1.5,3.8,2.5,6.3,2.5h14.8c5,0,9.1-4.1,9.1-9.1V225v-8.7v-7.8
		C261.2,206.5,259.6,205,257.7,205z"/>
	<g id="XMLID_60_">
		<path id="XMLID_61_" class="st16" d="M230.7,227.4v-11.1c0-0.1,0-0.3,0-0.4v-25.1c0-1.5,0.9-2.8,2.2-3.3c-0.4-0.2-0.8-0.2-1.3-0.2
			c-1.9,0-3.5,1.6-3.5,3.5v25.1c0,0.1,0,0.3,0,0.4v8.6L230.7,227.4z"/>
	</g>
</g>
<g id="XMLID_123_">
	<path id="XMLID_124_" class="st6" d="M115,33.7c0,18.6-15.1,33.7-33.7,33.7c-18.6,0-33.7-15.1-33.7-33.7C47.7,15.1,62.7,0,81.3,0
		C99.9,0,115,15.1,115,33.7z"/>
</g>
<g id="XMLID_88_">
	
		<rect id="XMLID_90_" x="67.6" y="31.5" transform="matrix(0.9593 -0.2823 0.2823 0.9593 -8.2373 21.5813)" class="st5" width="6.3" height="15.7"/>
	<path id="XMLID_89_" class="st5" d="M97,30.6c0-1.9-1.6-3.5-3.5-3.5c0,0-8,0.2-8-1.6c0-0.5,0-1,0.1-1.5c0.1-0.7,0.2-1.3,0.2-1.8
		c0.3-4-1.1-6.2-2.3-6.2c-0.3,0-2.5,0.1-2.3,1.3c0.1,0.5,0.3,3.3-0.4,5.7c-1.5,2.7-6.8,8.2-8.2,8.6L76.5,42c0,0,1.5-0.8,5.8-0.4
		c2.5,0.2,4.9,0.4,6.3,0.6c1.3,0.2,3.4,0.1,3.9-1.2c0.1-0.3,0.2-0.6,0.2-0.8c1.1-0.4,1.9-1.4,2-2.6c0-0.2,0-0.5,0-0.7
		c0.8-0.5,1.4-1.4,1.4-2.3c0-0.5-0.1-0.9-0.2-1.3C96.5,32.6,97,31.7,97,30.6z"/>
</g>
<g id="XMLID_126_">
	<g id="XMLID_152_">
		<rect id="XMLID_156_" x="129.4" y="118" class="st5" width="119.3" height="19.4"/>
		<path id="XMLID_153_" class="st8" d="M248.5,118.2v19.1H129.6v-19.1H248.5 M248.9,117.8H129.2v19.8h119.6V117.8L248.9,117.8z"/>
	</g>
	<rect id="XMLID_151_" x="229.1" y="117.8" class="st8" width="19.8" height="19.8"/>
	<g id="XMLID_143_">
		<path id="XMLID_148_" class="st5" d="M237.4,123.2c-2,0-3.6,1.6-3.6,3.6c0,2,1.6,3.6,3.6,3.6c2,0,3.6-1.6,3.6-3.6
			C241.1,124.9,239.4,123.2,237.4,123.2z M237.4,129.2c-1.3,0-2.3-1-2.3-2.3s1-2.3,2.3-2.3c1.3,0,2.3,1,2.3,2.3
			S238.7,129.2,237.4,129.2z"/>
		<g id="XMLID_146_">
			<path id="XMLID_147_" class="st5" d="M242.3,132.6c-0.1,0-0.2,0-0.3-0.1l-2.8-2.9c-0.1-0.2-0.1-0.4,0-0.5c0.2-0.1,0.4-0.1,0.5,0
				l2.8,2.9c0.1,0.2,0.1,0.4,0,0.5C242.5,132.5,242.4,132.6,242.3,132.6L242.3,132.6z"/>
		</g>
		<g id="XMLID_144_">
			<path id="XMLID_145_" class="st5" d="M242.3,133c-0.2,0-0.4-0.1-0.6-0.2l-1.7-1.8c-0.3-0.3-0.3-0.8,0-1.1c0.3-0.3,0.8-0.3,1.1,0
				l1.7,1.8c0.3,0.3,0.3,0.8,0,1.1C242.7,132.9,242.5,133,242.3,133L242.3,133z"/>
		</g>
	</g>
	<g id="XMLID_127_">
		<g id="XMLID_128_">
			<path id="XMLID_141_" class="st17" d="M139.6,126.1C139.6,126.1,139.5,126.2,139.6,126.1c-0.1,0.1-0.1,0.1-0.1,0.1
				c0,0-0.1,0-0.1-0.1c0,0-0.1-0.1-0.2-0.1c-0.1,0-0.2-0.1-0.2-0.1c-0.1,0-0.2-0.1-0.4-0.1c-0.1,0-0.2,0-0.3,0.1
				c-0.1,0-0.2,0.1-0.2,0.1c-0.1,0.1-0.1,0.1-0.2,0.2c0,0.1-0.1,0.2-0.1,0.3c0,0.1,0,0.2,0.1,0.3c0.1,0.1,0.1,0.1,0.2,0.2
				c0.1,0.1,0.2,0.1,0.3,0.1c0.1,0,0.2,0.1,0.4,0.1c0.1,0,0.3,0.1,0.4,0.1c0.1,0.1,0.2,0.1,0.3,0.2c0.1,0.1,0.2,0.2,0.2,0.3
				c0.1,0.1,0.1,0.3,0.1,0.4c0,0.2,0,0.4-0.1,0.5c-0.1,0.2-0.2,0.3-0.3,0.4c-0.1,0.1-0.3,0.2-0.5,0.3c-0.2,0.1-0.4,0.1-0.6,0.1
				c-0.3,0-0.5-0.1-0.8-0.2c-0.2-0.1-0.4-0.2-0.6-0.4l0.2-0.3c0,0,0,0,0.1-0.1c0,0,0,0,0.1,0c0,0,0.1,0,0.1,0.1
				c0.1,0,0.1,0.1,0.2,0.1c0.1,0.1,0.2,0.1,0.3,0.1c0.1,0,0.3,0.1,0.4,0.1c0.1,0,0.3,0,0.4-0.1c0.1,0,0.2-0.1,0.3-0.2
				c0.1-0.1,0.1-0.2,0.2-0.2c0-0.1,0.1-0.2,0.1-0.3c0-0.1,0-0.2-0.1-0.3c-0.1-0.1-0.1-0.2-0.2-0.2c-0.1-0.1-0.2-0.1-0.3-0.1
				c-0.1,0-0.2-0.1-0.4-0.1c-0.1,0-0.3-0.1-0.4-0.1c-0.1-0.1-0.2-0.1-0.3-0.2c-0.1-0.1-0.2-0.2-0.2-0.3c-0.1-0.1-0.1-0.3-0.1-0.5
				c0-0.2,0-0.3,0.1-0.4c0.1-0.1,0.1-0.3,0.3-0.4c0.1-0.1,0.3-0.2,0.4-0.3c0.2-0.1,0.4-0.1,0.6-0.1c0.2,0,0.5,0,0.7,0.1
				c0.2,0.1,0.4,0.2,0.5,0.3L139.6,126.1z"/>
			<path id="XMLID_138_" class="st17" d="M141.7,126.7c0.2,0,0.3,0,0.5,0.1c0.2,0.1,0.3,0.1,0.4,0.3c0.1,0.1,0.2,0.3,0.3,0.4
				c0.1,0.2,0.1,0.4,0.1,0.6c0,0.1,0,0.1,0,0.2c0,0-0.1,0-0.1,0h-2c0,0.2,0,0.4,0.1,0.5c0,0.1,0.1,0.3,0.2,0.4
				c0.1,0.1,0.2,0.2,0.3,0.2c0.1,0,0.2,0.1,0.4,0.1c0.1,0,0.2,0,0.3,0c0.1,0,0.2-0.1,0.3-0.1c0.1,0,0.1-0.1,0.2-0.1c0,0,0.1,0,0.1,0
				c0,0,0.1,0,0.1,0.1l0.1,0.2c-0.1,0.1-0.1,0.1-0.2,0.2c-0.1,0.1-0.2,0.1-0.3,0.1c-0.1,0-0.2,0.1-0.3,0.1c-0.1,0-0.2,0-0.3,0
				c-0.2,0-0.4,0-0.6-0.1c-0.2-0.1-0.3-0.2-0.5-0.3c-0.1-0.1-0.2-0.3-0.3-0.5c-0.1-0.2-0.1-0.4-0.1-0.7c0-0.2,0-0.4,0.1-0.6
				c0.1-0.2,0.2-0.3,0.3-0.5c0.1-0.1,0.3-0.2,0.4-0.3C141.3,126.7,141.4,126.7,141.7,126.7z M141.7,127c-0.3,0-0.5,0.1-0.6,0.2
				c-0.1,0.1-0.2,0.4-0.3,0.6h1.6c0-0.1,0-0.2-0.1-0.3c0-0.1-0.1-0.2-0.1-0.3c-0.1-0.1-0.1-0.1-0.2-0.2
				C141.9,127.1,141.8,127,141.7,127z"/>
			<path id="XMLID_135_" class="st17" d="M145.8,129.7h-0.2c-0.1,0-0.1,0-0.1,0c0,0-0.1,0-0.1-0.1l-0.1-0.3
				c-0.1,0.1-0.2,0.1-0.2,0.2c-0.1,0.1-0.2,0.1-0.2,0.1c-0.1,0-0.2,0.1-0.3,0.1c-0.1,0-0.2,0-0.3,0c-0.1,0-0.2,0-0.3,0
				c-0.1,0-0.2-0.1-0.3-0.1c-0.1-0.1-0.1-0.1-0.2-0.3c0-0.1-0.1-0.2-0.1-0.4c0-0.1,0-0.2,0.1-0.3c0.1-0.1,0.2-0.2,0.3-0.3
				c0.1-0.1,0.3-0.2,0.6-0.2c0.2-0.1,0.5-0.1,0.9-0.1v-0.2c0-0.2-0.1-0.4-0.2-0.5c-0.1-0.1-0.2-0.2-0.4-0.2c-0.1,0-0.2,0-0.3,0
				c-0.1,0-0.2,0.1-0.2,0.1c-0.1,0-0.1,0.1-0.2,0.1c0,0-0.1,0-0.1,0c0,0-0.1,0-0.1,0c0,0,0,0-0.1-0.1l-0.1-0.2
				c0.2-0.2,0.3-0.3,0.5-0.4c0.2-0.1,0.4-0.1,0.6-0.1c0.2,0,0.3,0,0.5,0.1c0.1,0.1,0.2,0.1,0.3,0.2c0.1,0.1,0.2,0.2,0.2,0.4
				c0,0.1,0.1,0.3,0.1,0.5V129.7z M144.4,129.4c0.1,0,0.2,0,0.3,0c0.1,0,0.2,0,0.2-0.1c0.1,0,0.1-0.1,0.2-0.1c0.1,0,0.1-0.1,0.2-0.2
				v-0.6c-0.2,0-0.5,0-0.6,0c-0.2,0-0.3,0.1-0.4,0.1c-0.1,0.1-0.2,0.1-0.2,0.2c0,0.1-0.1,0.1-0.1,0.2c0,0.1,0,0.1,0,0.2
				c0,0.1,0.1,0.1,0.1,0.1c0,0,0.1,0.1,0.2,0.1C144.3,129.4,144.4,129.4,144.4,129.4z"/>
			<path id="XMLID_133_" class="st17" d="M146.6,129.7v-3h0.3c0.1,0,0.1,0,0.1,0c0,0,0,0.1,0,0.1l0,0.5c0.1-0.2,0.2-0.4,0.4-0.5
				c0.2-0.1,0.3-0.2,0.5-0.2c0.1,0,0.2,0,0.2,0c0.1,0,0.1,0,0.2,0.1l-0.1,0.4c0,0.1,0,0.1-0.1,0.1c0,0-0.1,0-0.1,0
				c-0.1,0-0.1,0-0.2,0c-0.2,0-0.3,0.1-0.5,0.2c-0.1,0.1-0.2,0.3-0.3,0.5v1.9H146.6z"/>
			<path id="XMLID_131_" class="st17" d="M151.1,127.2C151.1,127.3,151.1,127.3,151.1,127.2c-0.1,0.1-0.1,0.1-0.1,0.1
				c0,0-0.1,0-0.1,0c0,0-0.1-0.1-0.1-0.1c-0.1,0-0.1-0.1-0.2-0.1c-0.1,0-0.2,0-0.3,0c-0.1,0-0.3,0-0.4,0.1c-0.1,0.1-0.2,0.1-0.3,0.2
				c-0.1,0.1-0.1,0.2-0.2,0.4c0,0.1-0.1,0.3-0.1,0.5c0,0.2,0,0.3,0.1,0.5c0,0.1,0.1,0.3,0.2,0.4c0.1,0.1,0.2,0.2,0.3,0.2
				c0.1,0.1,0.2,0.1,0.4,0.1c0.1,0,0.2,0,0.3,0c0.1,0,0.2-0.1,0.2-0.1c0.1,0,0.1-0.1,0.1-0.1c0,0,0.1,0,0.1,0c0,0,0.1,0,0.1,0.1
				l0.1,0.2c-0.1,0.2-0.3,0.3-0.5,0.4c-0.2,0.1-0.4,0.1-0.6,0.1c-0.2,0-0.4,0-0.5-0.1c-0.2-0.1-0.3-0.2-0.4-0.3
				c-0.1-0.1-0.2-0.3-0.3-0.5c-0.1-0.2-0.1-0.4-0.1-0.7c0-0.2,0-0.4,0.1-0.6c0.1-0.2,0.2-0.4,0.3-0.5c0.1-0.1,0.3-0.2,0.4-0.3
				c0.2-0.1,0.4-0.1,0.6-0.1c0.2,0,0.4,0,0.6,0.1c0.2,0.1,0.3,0.2,0.4,0.3L151.1,127.2z"/>
			<path id="XMLID_129_" class="st17" d="M151.8,129.7v-4.4h0.5v1.8c0.1-0.1,0.3-0.2,0.4-0.3c0.2-0.1,0.3-0.1,0.5-0.1
				c0.2,0,0.3,0,0.4,0.1c0.1,0.1,0.2,0.1,0.3,0.2c0.1,0.1,0.1,0.2,0.2,0.4c0,0.1,0.1,0.3,0.1,0.5v1.9h-0.5v-1.9
				c0-0.2-0.1-0.4-0.2-0.5c-0.1-0.1-0.3-0.2-0.5-0.2c-0.2,0-0.3,0-0.4,0.1c-0.1,0.1-0.3,0.2-0.4,0.3v2.2H151.8z"/>
		</g>
	</g>
</g>
</svg>
