<?xml version="1.0" encoding="utf-8"?>
<!-- Generator: Adobe Illustrator 19.0.0, SVG Export Plug-In . SVG Version: 6.00 Build 0)  -->
<svg version="1.1" id="Layer_1" xmlns="http://www.w3.org/2000/svg" xmlns:xlink="http://www.w3.org/1999/xlink" x="0px" y="0px"
	 viewBox="0 0 1029.6 338.1" style="enable-background:new 0 0 1029.6 338.1;" xml:space="preserve">
<style type="text/css">
	.st0{fill:none;stroke:#FFFFFF;stroke-width:2;stroke-miterlimit:10;stroke-dasharray:12,10;}
	.st1{fill:#0E303F;}
	.st2{fill:#FBBE14;}
	.st3{fill:#F49921;}
	.st4{fill:#FFFFFF;}
	.st5{fill:#C4E0EE;}
	.st6{fill:#2597CC;}
	.st7{fill:#8EC3D5;}
	.st8{fill:none;}
	.st9{fill:#B0BD45;}
	.st10{fill:#FDC70C;}
	.st11{fill:#EB622B;}
	.st12{fill:#174F79;}
	.st13{fill:#F49C18;}
	.st14{fill:#0E3753;}
	.st15{fill:#2178A2;}
	.st16{fill:#2D5871;}
	.st17{fill:#A5D9E7;}
	.st18{fill:#C43917;}
	.st19{fill:#D1EBFA;}
</style>
<g id="XMLID_53_">
	<path id="XMLID_55_" class="st0" d="M391.8,280.1c0,0,3-42.6-123.2-62.5c-120.3-19-118.6,11.1-162.2,19.6
		C65.8,245-54.7,187.6,49.3,47"/>
	<path id="XMLID_595_" class="st0" d="M391.8,188.4c0,0,5.4,115.2-141,104.7c-154-11-161.2-164-62.5-161.9"/>
	<path id="XMLID_592_" class="st0" d="M601.5,225.5c0,0,256.3,172.7,301.3-42.1"/>
	<path id="XMLID_593_" class="st0" d="M618.8,301.7c0,0,298.5-32.8,177-240.3"/>
	<path id="XMLID_591_" class="st0" d="M593.5,195c0,0,67-126.8,170.6-78.7c94.5,43.9,78.6,102.2,165.1,108.9
		c100,7.7,127.4-185.3,38.9-198.4"/>
	<g id="XMLID_581_">
		<path id="XMLID_584_" class="st1" d="M646.4,337.8V173.4c0-3.7-3-6.8-6.8-6.8H381.5c-3.7,0-6.8,3-6.8,6.8v164.4H646.4z"/>
		<rect id="XMLID_583_" x="385.8" y="177.2" class="st2" width="249.4" height="149.3"/>
		<polygon id="XMLID_582_" class="st3" points="385.8,326.6 635.3,177.2 635.3,326.6 		"/>
	</g>
	<g id="XMLID_422_">
		<path id="XMLID_520_" class="st4" d="M597.7,325.3c0,0.7-0.6,1.3-1.3,1.3h-171c-0.7,0-1.3-0.6-1.3-1.3V81.6c0-0.7,0.6-1.3,1.3-1.3
			h171c0.7,0,1.3,0.6,1.3,1.3V325.3z"/>
		<path id="XMLID_519_" class="st5" d="M597.7,94.3V81.6c0-0.7-0.6-1.3-1.3-1.3h-171c-0.7,0-1.3,0.6-1.3,1.3v12.6H597.7z"/>
		<path id="XMLID_518_" class="st5" d="M424,296.2v29.1c0,0.7,0.6,1.3,1.3,1.3h171c0.7,0,1.3-0.6,1.3-1.3v-29.1H424z"/>
		<rect id="XMLID_517_" x="424" y="139.5" class="st6" width="173.7" height="65.7"/>
		<g id="XMLID_511_">
			<rect id="XMLID_516_" x="463.5" y="159.9" class="st5" width="94.4" height="6.2"/>
			<g id="XMLID_512_">
				<rect id="XMLID_515_" x="453.4" y="172.1" class="st5" width="114.5" height="1.6"/>
				<rect id="XMLID_514_" x="448.8" y="177.7" class="st5" width="123.8" height="1.5"/>
				<rect id="XMLID_513_" x="464" y="183.3" class="st5" width="93.4" height="1.6"/>
			</g>
		</g>
		<rect id="XMLID_510_" x="487.6" y="108.1" class="st5" width="46.5" height="11"/>
		<g id="XMLID_504_">
			<rect id="XMLID_509_" x="446.2" y="125.2" class="st7" width="23" height="1.5"/>
			<rect id="XMLID_508_" x="472.8" y="125.2" class="st7" width="23" height="1.5"/>
			<rect id="XMLID_507_" x="499.4" y="125.2" class="st7" width="23" height="1.5"/>
			<rect id="XMLID_506_" x="526" y="125.2" class="st7" width="23" height="1.5"/>
			<rect id="XMLID_505_" x="552.6" y="125.2" class="st7" width="23" height="1.5"/>
		</g>
		<g id="XMLID_493_">
			<g id="XMLID_499_">
				<g id="XMLID_502_">
					<polygon id="XMLID_503_" class="st4" points="588.7,175.7 587.6,174.8 589.4,172.4 587.6,169.9 588.7,169.1 591.1,172.4 
						588.7,175.7 					"/>
				</g>
				<g id="XMLID_500_">
					<polygon id="XMLID_501_" class="st4" points="590.3,173.1 583.9,173.1 583.9,171.7 590.3,171.7 590.3,173.1 					"/>
				</g>
			</g>
			<g id="XMLID_494_">
				<g id="XMLID_497_">
					<polygon id="XMLID_498_" class="st4" points="433,175.7 430.6,172.4 433,169.1 434.1,169.9 432.3,172.4 434.1,174.8 433,175.7 
											"/>
				</g>
				<g id="XMLID_495_">
					<polygon id="XMLID_496_" class="st4" points="437.9,173.1 431.5,173.1 431.5,171.7 437.9,171.7 437.9,173.1 					"/>
				</g>
			</g>
		</g>
		<g id="XMLID_482_">
			<g id="XMLID_488_">
				<rect id="XMLID_492_" x="438.6" y="214.2" class="st5" width="42.1" height="42.1"/>
				<path id="XMLID_489_" class="st7" d="M480,214.9v40.7h-40.7v-40.7H480 M481.4,213.5h-43.5V257h43.5V213.5L481.4,213.5z"/>
			</g>
			<g id="XMLID_483_">
				<g id="XMLID_486_">
					<path id="XMLID_487_" class="st7" d="M439.3,256.3c-0.2,0-0.4-0.1-0.5-0.2c-0.3-0.3-0.3-0.7,0-1l40.7-40.7c0.3-0.3,0.7-0.3,1,0
						c0.3,0.3,0.3,0.7,0,1l-40.7,40.7C439.7,256.2,439.5,256.3,439.3,256.3L439.3,256.3z"/>
				</g>
				<g id="XMLID_484_">
					<path id="XMLID_485_" class="st7" d="M480,256.3c-0.2,0-0.4-0.1-0.5-0.2l-40.7-40.7c-0.3-0.3-0.3-0.7,0-1c0.3-0.3,0.7-0.3,1,0
						l40.7,40.7c0.3,0.3,0.3,0.7,0,1C480.3,256.2,480.2,256.3,480,256.3L480,256.3z"/>
				</g>
			</g>
		</g>
		<g id="XMLID_471_">
			<g id="XMLID_477_">
				<rect id="XMLID_481_" x="489.8" y="214.2" class="st5" width="42.1" height="42.1"/>
				<path id="XMLID_478_" class="st7" d="M531.2,214.9v40.7h-40.7v-40.7H531.2 M532.6,213.5h-43.5V257h43.5V213.5L532.6,213.5z"/>
			</g>
			<g id="XMLID_472_">
				<g id="XMLID_475_">
					<path id="XMLID_476_" class="st7" d="M490.5,256.3c-0.2,0-0.4-0.1-0.5-0.2c-0.3-0.3-0.3-0.7,0-1l40.7-40.7c0.3-0.3,0.7-0.3,1,0
						c0.3,0.3,0.3,0.7,0,1L491,256.1C490.9,256.2,490.7,256.3,490.5,256.3L490.5,256.3z"/>
				</g>
				<g id="XMLID_473_">
					<path id="XMLID_474_" class="st7" d="M531.2,256.3c-0.2,0-0.4-0.1-0.5-0.2L490,215.4c-0.3-0.3-0.3-0.7,0-1c0.3-0.3,0.7-0.3,1,0
						l40.7,40.7c0.3,0.3,0.3,0.7,0,1C531.6,256.2,531.4,256.3,531.2,256.3L531.2,256.3z"/>
				</g>
			</g>
		</g>
		<g id="XMLID_460_">
			<g id="XMLID_466_">
				<rect id="XMLID_470_" x="541.1" y="214.2" class="st5" width="42.1" height="42.1"/>
				<path id="XMLID_467_" class="st7" d="M582.4,214.9v40.7h-40.7v-40.7H582.4 M583.8,213.5h-43.5V257h43.5V213.5L583.8,213.5z"/>
			</g>
			<g id="XMLID_461_">
				<g id="XMLID_464_">
					<path id="XMLID_465_" class="st7" d="M541.8,256.3c-0.2,0-0.4-0.1-0.5-0.2c-0.3-0.3-0.3-0.7,0-1l40.7-40.7c0.3-0.3,0.7-0.3,1,0
						c0.3,0.3,0.3,0.7,0,1l-40.7,40.7C542.1,256.2,541.9,256.3,541.8,256.3L541.8,256.3z"/>
				</g>
				<g id="XMLID_462_">
					<path id="XMLID_463_" class="st7" d="M582.4,256.3c-0.2,0-0.4-0.1-0.5-0.2l-40.7-40.7c-0.3-0.3-0.3-0.7,0-1
						c0.3-0.3,0.7-0.3,1,0l40.7,40.7c0.3,0.3,0.3,0.7,0,1C582.8,256.2,582.6,256.3,582.4,256.3L582.4,256.3z"/>
				</g>
			</g>
		</g>
		<g id="XMLID_455_">
			<g id="XMLID_458_">
				<path id="XMLID_459_" class="st8" d="M541.7,255.6"/>
			</g>
			<g id="XMLID_456_">
				<path id="XMLID_457_" class="st8" d="M582.4,214.9"/>
			</g>
		</g>
		<g id="XMLID_448_">
			<rect id="XMLID_454_" x="437.9" y="265.8" class="st5" width="42.6" height="1.5"/>
			<rect id="XMLID_453_" x="437.9" y="269.9" class="st5" width="38.7" height="1.5"/>
			<rect id="XMLID_452_" x="437.9" y="273.9" class="st5" width="42.6" height="1.5"/>
			<rect id="XMLID_451_" x="437.9" y="277.9" class="st5" width="34" height="1.5"/>
			<g id="XMLID_449_">
				<rect id="XMLID_450_" x="437.9" y="262" class="st6" width="23" height="1.5"/>
			</g>
		</g>
		<g id="XMLID_443_">
			<rect id="XMLID_447_" x="437.9" y="310.1" class="st7" width="42.6" height="1.5"/>
			<rect id="XMLID_446_" x="437.9" y="313.1" class="st7" width="38.7" height="1.5"/>
			<g id="XMLID_444_">
				<rect id="XMLID_445_" x="437.9" y="306.2" class="st7" width="23" height="1.6"/>
			</g>
		</g>
		<g id="XMLID_436_">
			<rect id="XMLID_442_" x="489.1" y="265.8" class="st5" width="42.6" height="1.5"/>
			<rect id="XMLID_441_" x="489.1" y="269.9" class="st5" width="38.7" height="1.5"/>
			<rect id="XMLID_440_" x="489.1" y="273.9" class="st5" width="42.6" height="1.5"/>
			<rect id="XMLID_439_" x="489.1" y="277.9" class="st5" width="34" height="1.5"/>
			<g id="XMLID_437_">
				<rect id="XMLID_438_" x="489.1" y="262" class="st6" width="23" height="1.5"/>
			</g>
		</g>
		<g id="XMLID_429_">
			<rect id="XMLID_435_" x="540.4" y="265.8" class="st5" width="42.6" height="1.5"/>
			<rect id="XMLID_434_" x="540.4" y="269.9" class="st5" width="38.7" height="1.5"/>
			<rect id="XMLID_433_" x="540.4" y="273.9" class="st5" width="42.6" height="1.5"/>
			<rect id="XMLID_432_" x="540.4" y="277.9" class="st5" width="34" height="1.5"/>
			<g id="XMLID_430_">
				<rect id="XMLID_431_" x="540.4" y="262" class="st6" width="23" height="1.5"/>
			</g>
		</g>
		<path id="XMLID_428_" class="st7" d="M583.8,310.4c0,2-1.6,3.6-3.6,3.6c-2,0-3.6-1.6-3.6-3.6c0-2,1.6-3.6,3.6-3.6
			C582.2,306.8,583.8,308.4,583.8,310.4z"/>
		<circle id="XMLID_427_" class="st7" cx="570.9" cy="310.4" r="3.6"/>
		<path id="XMLID_426_" class="st7" d="M565.2,310.4c0,2-1.6,3.6-3.6,3.6c-2,0-3.6-1.6-3.6-3.6c0-2,1.6-3.6,3.6-3.6
			C563.6,306.8,565.2,308.4,565.2,310.4z"/>
		<circle id="XMLID_425_" class="st9" cx="444.2" cy="87.2" r="2.2"/>
		<path id="XMLID_424_" class="st10" d="M439.2,87.2c0,1.2-1,2.2-2.2,2.2c-1.2,0-2.2-1-2.2-2.2c0-1.2,1-2.2,2.2-2.2
			C438.2,84.9,439.2,85.9,439.2,87.2z"/>
		<path id="XMLID_423_" class="st11" d="M431.9,87.2c0,1.2-1,2.2-2.2,2.2c-1.2,0-2.2-1-2.2-2.2c0-1.2,1-2.2,2.2-2.2
			C430.9,84.9,431.9,85.9,431.9,87.2z"/>
	</g>
	<g id="XMLID_411_">
		<g id="XMLID_412_">
			<path id="XMLID_421_" class="st1" d="M183.3,124.9h77.5c-0.2,1.5-1.4,2.7-2.9,2.9h-74.5V124.9z"/>
			<path id="XMLID_420_" class="st12" d="M183.3,134.7v-6.9h74.5h0c0,0,0,0,0,0c0,0,0,0,0,0c1.7,0.2,3,1.7,3,3.4
				c0,1.8-1.3,3.2-3,3.4c0,0,0,0,0,0c0,0,0,0,0,0l0,0H183.3z"/>
			<path id="XMLID_419_" class="st1" d="M257.8,134.7c1.5,0.2,2.7,1.4,2.9,2.9l-77.5,0v-2.9H257.8z"/>
			<path id="XMLID_418_" class="st4" d="M260.8,137.6c-0.2-1.5-1.4-2.7-2.9-2.9l0,0c0,0,0,0,0,0c0,0,0,0,0,0c1.7-0.2,3-1.7,3-3.4
				c0-1.8-1.3-3.2-3-3.4c0,0,0,0,0,0c0,0,0,0,0,0h0c1.5-0.2,2.7-1.4,2.9-2.9l7.9,6.3L260.8,137.6z"/>
			<path id="XMLID_417_" class="st1" d="M264.8,128.1l3.9,3.1l-3.9,3.1c-0.2-1-0.4-2-0.4-3.1C264.4,130.2,264.5,129.1,264.8,128.1z"
				/>
			<g id="XMLID_413_">
				<rect id="XMLID_416_" x="179.5" y="124.9" class="st3" width="3.7" height="2.9"/>
				<rect id="XMLID_415_" x="179.5" y="127.8" class="st2" width="3.7" height="6.9"/>
				<rect id="XMLID_414_" x="179.5" y="134.7" class="st3" width="3.7" height="2.9"/>
			</g>
		</g>
	</g>
	<g id="XMLID_409_">
		<circle id="XMLID_410_" class="st4" cx="50.3" cy="44.9" r="26.2"/>
	</g>
	<g id="XMLID_348_">
		<g id="XMLID_407_">
			<path id="XMLID_408_" class="st12" d="M952.8,75.6h16.7c0.6,0,1.1-0.5,1.1-1.1c0-0.6-0.5-1.1-1.1-1.1h-16.7
				c-0.6,0-1.1,0.5-1.1,1.1C951.8,75.1,952.2,75.6,952.8,75.6L952.8,75.6z"/>
		</g>
		<g id="XMLID_368_">
			<g id="XMLID_405_">
				<path id="XMLID_406_" class="st4" d="M961.2,7.4c-0.3,0-0.5-0.2-0.5-0.5V2.5c0-0.3,0.2-0.5,0.5-0.5s0.5,0.2,0.5,0.5v4.3
					C961.7,7.2,961.5,7.4,961.2,7.4L961.2,7.4z"/>
			</g>
			<g id="XMLID_403_">
				<path id="XMLID_404_" class="st4" d="M968,8.3c0,0-0.1,0-0.1,0c-0.3-0.1-0.5-0.4-0.4-0.7l1.1-4.2c0.1-0.3,0.4-0.5,0.7-0.4
					c0.3,0.1,0.5,0.4,0.4,0.7l-1.1,4.2C968.4,8.1,968.2,8.3,968,8.3L968,8.3z"/>
			</g>
			<g id="XMLID_401_">
				<path id="XMLID_402_" class="st4" d="M974.3,10.9c-0.1,0-0.2,0-0.3-0.1c-0.3-0.1-0.3-0.5-0.2-0.7l2.2-3.8
					c0.1-0.3,0.5-0.3,0.7-0.2c0.3,0.1,0.3,0.5,0.2,0.7l-2.2,3.8C974.7,10.8,974.5,10.9,974.3,10.9L974.3,10.9z"/>
			</g>
			<g id="XMLID_399_">
				<path id="XMLID_400_" class="st4" d="M979.7,15.1c-0.1,0-0.3-0.1-0.4-0.2c-0.2-0.2-0.2-0.5,0-0.8l3.1-3.1c0.2-0.2,0.5-0.2,0.8,0
					c0.2,0.2,0.2,0.5,0,0.8l-3.1,3.1C980,15.1,979.9,15.1,979.7,15.1L979.7,15.1z"/>
			</g>
			<g id="XMLID_397_">
				<path id="XMLID_398_" class="st4" d="M983.9,20.5c-0.2,0-0.4-0.1-0.5-0.3c-0.1-0.3-0.1-0.6,0.2-0.7l3.7-2.2
					c0.3-0.1,0.6-0.1,0.7,0.2c0.1,0.3,0.1,0.6-0.2,0.7l-3.7,2.2C984.1,20.5,984,20.5,983.9,20.5L983.9,20.5z"/>
			</g>
			<g id="XMLID_395_">
				<path id="XMLID_396_" class="st4" d="M986.5,26.9c-0.2,0-0.5-0.2-0.5-0.4c-0.1-0.3,0.1-0.6,0.4-0.7l4.2-1.1
					c0.3-0.1,0.6,0.1,0.7,0.4c0.1,0.3-0.1,0.6-0.4,0.7l-4.2,1.1C986.6,26.9,986.5,26.9,986.5,26.9L986.5,26.9z"/>
			</g>
			<g id="XMLID_393_">
				<path id="XMLID_394_" class="st4" d="M991.7,33.6h-4.3c-0.3,0-0.5-0.2-0.5-0.5c0-0.3,0.2-0.5,0.5-0.5h4.3c0.3,0,0.5,0.2,0.5,0.5
					C992.2,33.4,992,33.6,991.7,33.6L991.7,33.6z"/>
			</g>
			<g id="XMLID_391_">
				<path id="XMLID_392_" class="st4" d="M990.6,41.5c0,0-0.1,0-0.1,0l-4.2-1.1c-0.3-0.1-0.5-0.4-0.4-0.7c0.1-0.3,0.4-0.5,0.7-0.4
					l4.2,1.1c0.3,0.1,0.5,0.4,0.4,0.7C991.1,41.4,990.9,41.5,990.6,41.5L990.6,41.5z"/>
			</g>
			<g id="XMLID_389_">
				<path id="XMLID_390_" class="st4" d="M987.6,48.9c-0.1,0-0.2,0-0.3-0.1l-3.8-2.2c-0.3-0.1-0.3-0.5-0.2-0.7
					c0.1-0.3,0.5-0.3,0.7-0.2l3.8,2.2c0.3,0.1,0.3,0.5,0.2,0.7C987.9,48.8,987.8,48.9,987.6,48.9L987.6,48.9z"/>
			</g>
			<g id="XMLID_387_">
				<path id="XMLID_388_" class="st4" d="M982.7,55.2c-0.1,0-0.3-0.1-0.4-0.2l-3.1-3.1c-0.2-0.2-0.2-0.5,0-0.8
					c0.2-0.2,0.5-0.2,0.8,0l3.1,3.1c0.2,0.2,0.2,0.5,0,0.8C983,55.2,982.9,55.2,982.7,55.2L982.7,55.2z"/>
			</g>
			<g id="XMLID_385_">
				<path id="XMLID_386_" class="st4" d="M939.5,55.1c-0.1,0-0.3-0.1-0.4-0.2c-0.2-0.2-0.2-0.5,0-0.8l3.1-3.1c0.2-0.2,0.5-0.2,0.8,0
					c0.2,0.2,0.2,0.5,0,0.8l-3.1,3.1C939.8,55.1,939.7,55.1,939.5,55.1L939.5,55.1z"/>
			</g>
			<g id="XMLID_383_">
				<path id="XMLID_384_" class="st4" d="M934.7,48.8c-0.2,0-0.4-0.1-0.5-0.3c-0.1-0.3-0.1-0.6,0.2-0.7l3.8-2.2
					c0.3-0.1,0.6-0.1,0.7,0.2c0.1,0.3,0.1,0.6-0.2,0.7l-3.8,2.2C934.9,48.8,934.8,48.8,934.7,48.8L934.7,48.8z"/>
			</g>
			<g id="XMLID_381_">
				<path id="XMLID_382_" class="st4" d="M931.7,41.5c-0.2,0-0.5-0.2-0.5-0.4c-0.1-0.3,0.1-0.6,0.4-0.7l4.2-1.1
					c0.3-0.1,0.6,0.1,0.7,0.4c0.1,0.3-0.1,0.6-0.4,0.7l-4.2,1.1C931.8,41.4,931.7,41.5,931.7,41.5L931.7,41.5z"/>
			</g>
			<g id="XMLID_379_">
				<path id="XMLID_380_" class="st4" d="M935,33.5h-4.3c-0.3,0-0.5-0.2-0.5-0.5c0-0.3,0.2-0.5,0.5-0.5h4.3c0.3,0,0.5,0.2,0.5,0.5
					C935.5,33.3,935.3,33.5,935,33.5L935,33.5z"/>
			</g>
			<g id="XMLID_377_">
				<path id="XMLID_378_" class="st4" d="M935.9,26.8c0,0-0.1,0-0.1,0l-4.2-1.1c-0.3-0.1-0.5-0.4-0.4-0.7c0.1-0.3,0.4-0.5,0.7-0.4
					l4.2,1.1c0.3,0.1,0.5,0.4,0.4,0.7C936.3,26.6,936.1,26.8,935.9,26.8L935.9,26.8z"/>
			</g>
			<g id="XMLID_375_">
				<path id="XMLID_376_" class="st4" d="M938.5,20.5c-0.1,0-0.2,0-0.3-0.1l-3.8-2.2c-0.3-0.1-0.3-0.5-0.2-0.7
					c0.1-0.3,0.5-0.3,0.7-0.2l3.8,2.2c0.3,0.1,0.3,0.5,0.2,0.7C938.9,20.4,938.7,20.5,938.5,20.5L938.5,20.5z"/>
			</g>
			<g id="XMLID_373_">
				<path id="XMLID_374_" class="st4" d="M942.7,15c-0.1,0-0.3-0.1-0.4-0.2l-3.1-3.1c-0.2-0.2-0.2-0.5,0-0.8c0.2-0.2,0.5-0.2,0.8,0
					l3.1,3.1c0.2,0.2,0.2,0.5,0,0.8C942.9,15,942.8,15,942.7,15L942.7,15z"/>
			</g>
			<g id="XMLID_371_">
				<path id="XMLID_372_" class="st4" d="M948.1,10.9c-0.2,0-0.4-0.1-0.5-0.3l-2.2-3.8c-0.1-0.3-0.1-0.6,0.2-0.7
					c0.3-0.1,0.6-0.1,0.7,0.2l2.2,3.8c0.1,0.3,0.1,0.6-0.2,0.7C948.3,10.9,948.2,10.9,948.1,10.9L948.1,10.9z"/>
			</g>
			<g id="XMLID_369_">
				<path id="XMLID_370_" class="st4" d="M954.4,8.3c-0.2,0-0.5-0.2-0.5-0.4l-1.1-4.2c-0.1-0.3,0.1-0.6,0.4-0.7
					c0.3-0.1,0.6,0.1,0.7,0.4l1.1,4.2c0.1,0.3-0.1,0.6-0.4,0.7C954.5,8.3,954.5,8.3,954.4,8.3L954.4,8.3z"/>
			</g>
		</g>
		<path id="XMLID_367_" class="st13" d="M940.4,32.8c0-11.5,9.3-20.8,20.8-20.8c11.5,0,20.8,9.3,20.8,20.8c0,0.7-0.5,10.3-8.3,20.3
			c-2.3,3-1.9,9.1-1.9,9.1c-3.2,0-5.9,0-9.1,0c-1,0-2,0-2.9,0c-3.2,0-5.9,0-9.1,0c0,0,0.4-6.1-1.8-9.1
			C940.9,43.1,940.4,33.5,940.4,32.8z"/>
		<path id="XMLID_366_" class="st10" d="M961.2,62.3c-3.2,0-7.4,0-10.6,0c0,0,0.4-6.1-1.8-9.1c-7.8-10.1-8.3-19.7-8.3-20.3
			c0-11.5,9.3-20.8,20.8-20.8"/>
		<g id="XMLID_364_">
			<path id="XMLID_365_" class="st10" d="M977.5,32.8h-1.8c0-8-6.5-14.5-14.5-14.5v-1.8C970.2,16.5,977.5,23.8,977.5,32.8
				L977.5,32.8z"/>
		</g>
		<g id="XMLID_356_">
			<g id="XMLID_359_">
				<g id="XMLID_362_">
					<polygon id="XMLID_363_" class="st12" points="965.7,64 963.9,63.7 967.5,42.2 969.3,42.5 965.7,64 					"/>
				</g>
				<g id="XMLID_360_">
					<polygon id="XMLID_361_" class="st12" points="956.6,64 953.1,42.5 954.9,42.2 958.4,63.7 956.6,64 					"/>
				</g>
			</g>
			<g id="XMLID_357_">
				<path id="XMLID_358_" class="st12" d="M968.2,45.2c-0.7,0-1.1-0.7-1.3-1.3c-0.1-0.2-0.3-0.7-0.4-0.7c-0.1,0-0.3,0.5-0.4,0.7
					c-0.2,0.5-0.6,1.3-1.3,1.3c-0.7,0-1.1-0.7-1.3-1.3c-0.1-0.2-0.3-0.7-0.4-0.7c-0.1,0-0.3,0.5-0.4,0.7c-0.2,0.5-0.6,1.3-1.3,1.3
					c-0.7,0-1.1-0.7-1.3-1.3c-0.1-0.2-0.3-0.7-0.4-0.7c-0.1,0-0.3,0.5-0.4,0.7c-0.2,0.5-0.6,1.3-1.3,1.3c-0.7,0-1.1-0.7-1.3-1.3
					c-0.1-0.2-0.3-0.7-0.4-0.7c-0.1,0-0.3,0.5-0.4,0.7c-0.2,0.5-0.6,1.3-1.3,1.3v-1c0.1,0,0.3-0.5,0.4-0.7c0.2-0.5,0.6-1.3,1.3-1.3
					c0.7,0,1.1,0.7,1.3,1.3c0.1,0.2,0.3,0.7,0.4,0.7c0.1,0,0.3-0.5,0.4-0.7c0.2-0.5,0.6-1.3,1.3-1.3c0.7,0,1.1,0.7,1.3,1.3
					c0.1,0.2,0.3,0.7,0.4,0.7c0.1,0,0.3-0.5,0.4-0.7c0.2-0.5,0.6-1.3,1.3-1.3c0.7,0,1.1,0.7,1.3,1.3c0.1,0.2,0.3,0.7,0.4,0.7
					c0.1,0,0.3-0.5,0.4-0.7c0.2-0.5,0.6-1.3,1.3-1.3c0.7,0,1.1,0.7,1.3,1.3c0.1,0.2,0.3,0.7,0.4,0.7V45.2L968.2,45.2z"/>
			</g>
		</g>
		<path id="XMLID_355_" class="st14" d="M971.7,62.5v10.9c0,0.7-0.6,1.3-1.3,1.3H952c-0.7,0-1.3-0.6-1.3-1.3V62.5H971.7z"/>
		<g id="XMLID_353_">
			<path id="XMLID_354_" class="st12" d="M972.2,64.6h-22c-0.6,0-1.1-0.5-1.1-1.1c0-0.6,0.5-1.1,1.1-1.1h22c0.6,0,1.1,0.5,1.1,1.1
				C973.2,64.1,972.8,64.6,972.2,64.6L972.2,64.6z"/>
		</g>
		<g id="XMLID_351_">
			<path id="XMLID_352_" class="st12" d="M972.2,68.1h-22c-0.6,0-1.1-0.5-1.1-1.1c0-0.6,0.5-1.1,1.1-1.1h22c0.6,0,1.1,0.5,1.1,1.1
				C973.2,67.6,972.8,68.1,972.2,68.1L972.2,68.1z"/>
		</g>
		<g id="XMLID_349_">
			<path id="XMLID_350_" class="st12" d="M972.2,71.7h-22c-0.6,0-1.1-0.5-1.1-1.1c0-0.6,0.5-1.1,1.1-1.1h22c0.6,0,1.1,0.5,1.1,1.1
				C973.2,71.2,972.8,71.7,972.2,71.7L972.2,71.7z"/>
		</g>
	</g>
	<g id="XMLID_339_">
		<path id="XMLID_347_" class="st3" d="M50.6,48.2c-2.5,1.6-6.1-2-4.5-4.5c2.9-4.4,4.7-7.2,7.5-11.7c3.3,2.6,6.2,5.6,8.8,8.8
			C57.8,43.5,54.9,45.2,50.6,48.2z"/>
		<path id="XMLID_346_" class="st15" d="M85.3,14.4c5.3-5.9,0.3-10.8-5.6-5.5c-9.9,8.8-16.2,14.3-26.1,23c2.9,2.9,5.8,5.8,8.6,8.6
			C71,30.6,76.5,24.3,85.3,14.4z"/>
		
			<rect id="XMLID_345_" x="50.8" y="36" transform="matrix(0.7071 0.7071 -0.7071 0.7071 42.8805 -29.7049)" class="st1" width="13" height="1.9"/>
		<path id="XMLID_344_" class="st1" d="M39.4,47.4c-0.4,2.2-0.3,7.7-3.8,8.2c0,0,7.4,1.7,12-0.7c1.1-0.6,1.9-1.1,2.8-2.1
			c2.3-2.6,2-6.6-0.7-8.9c-2.6-2.3-6.6-2-8.9,0.7C40.1,45.3,39.6,46.3,39.4,47.4z"/>
		<path id="XMLID_343_" class="st2" d="M49.8,43.9l6.6-6.6l-3.8-3.8c-2,3.2-3.5,5.7-5.7,8.9C47.9,42.6,48.9,43.1,49.8,43.9
			C49.8,43.8,49.8,43.9,49.8,43.9z"/>
		<path id="XMLID_342_" class="st6" d="M57.7,36L86.4,7.3c-1.4-1.1-3.9-0.8-6.7,1.6c-9.9,8.8-16.2,14.3-26.1,23L57.7,36z"/>
		<polygon id="XMLID_341_" class="st16" points="57.7,36 53.7,31.9 53.4,31.6 52,33 52.5,33.5 56.4,37.3 		"/>
		<path id="XMLID_340_" class="st16" d="M42.7,49.7c1.9-6.4,7.2-5.9,7.2-5.9c0,0-0.1-0.1-0.1-0.1c-0.8-0.7-1.8-1.2-2.9-1.4
			c-2.2-0.4-4.5,0.3-6,2.1c-0.7,0.9-1.2,1.9-1.4,2.9c-0.4,2.2-0.3,7.7-3.8,8.2C35.6,55.5,40.8,56.1,42.7,49.7z"/>
	</g>
	<g id="XMLID_325_">
		<polygon id="XMLID_338_" class="st4" points="921.5,140.6 920.7,145.4 916,146.1 920.7,146.9 921.5,151.6 922.2,146.9 927,146.1 
			922.2,145.4 		"/>
		<polygon id="XMLID_337_" class="st4" points="913.9,138.6 913.5,141 911,141.4 913.5,141.8 913.9,144.3 914.3,141.8 916.8,141.4 
			914.3,141 		"/>
		<g id="XMLID_326_">
			<g id="XMLID_327_">
				<path id="XMLID_336_" class="st1" d="M924.7,155.8h-4.3l-4.7-5.9H901l-4.7,5.9H881c-1.8,0-3.3,1.5-3.3,3.3v28.6
					c0,1.8,1.5,3.3,3.3,3.3h43.8c1.8,0,3.3-1.5,3.3-3.3v-28.6C928,157.3,926.5,155.8,924.7,155.8z"/>
				<circle id="XMLID_335_" class="st12" cx="908.4" cy="173.4" r="11.7"/>
				<circle id="XMLID_334_" class="st1" cx="908.4" cy="173.4" r="10.1"/>
				<circle id="XMLID_333_" class="st17" cx="908.4" cy="173.4" r="7.5"/>
				<circle id="XMLID_332_" class="st4" cx="906.1" cy="170.4" r="2.7"/>
				<circle id="XMLID_331_" class="st4" cx="903.4" cy="174.5" r="1.5"/>
				<path id="XMLID_330_" class="st12" d="M882.2,158.1c-1.3,0-2.3-0.7-2.9-1.7c-0.9,0.6-1.6,1.6-1.6,2.8v28.6
					c0,1.8,1.5,3.3,3.3,3.3h9.2v-32.9H882.2z"/>
				<path id="XMLID_329_" class="st12" d="M890.1,155.8c0,0.5-0.4,0.9-0.9,0.9h-6.4c-0.5,0-0.9-0.4-0.9-0.9v-0.5
					c0-0.5,0.4-0.9,0.9-0.9h6.4c0.5,0,0.9,0.4,0.9,0.9V155.8z"/>
				<path id="XMLID_328_" class="st4" d="M915.4,154c0,0.5-0.4,1-1,1h-12.3c-0.5,0-1-0.4-1-1v-2c0-0.5,0.4-1,1-1h12.3
					c0.5,0,1,0.4,1,1V154z"/>
			</g>
		</g>
	</g>
	<g id="XMLID_317_">
		<g id="XMLID_318_">
			<g id="XMLID_319_">
				<g id="XMLID_320_">
					<path id="XMLID_324_" class="st16" d="M249.2,306.3c-13.1,1.7-26.3,1.7-39.4,0c-2.2-10.1-2.2-20.3,0-30.4
						c13.1-1.7,26.3-1.7,39.4,0C251.4,286.1,251.4,296.2,249.2,306.3z"/>
					<path id="XMLID_323_" class="st1" d="M209.8,306.3c13.1,1.7,26.3,1.7,39.4,0c1.1-5.1,1.7-10.2,1.7-15.3h-42.7
						C208.1,296.2,208.7,301.2,209.8,306.3z"/>
					<path id="XMLID_322_" class="st4" d="M237.6,290.2c0.8,0.5,0.8,1.3,0,1.8l-11.4,7.2c-0.8,0.5-1.4,0.1-1.4-0.9V284
						c0-1,0.6-1.4,1.4-0.9L237.6,290.2z"/>
					<path id="XMLID_321_" class="st17" d="M224.8,298.3c0,1,0.6,1.4,1.4,0.9l11.4-7.2c0.4-0.3,0.6-0.6,0.6-0.9h-13.4V298.3z"/>
				</g>
			</g>
		</g>
	</g>
	<g id="XMLID_295_">
		<g id="XMLID_300_">
			<path id="XMLID_301_" class="st18" d="M767,223.6c-0.1,0-0.3,0-0.4-0.1c-0.2-0.2-0.2-0.5,0-0.7l8.7-8.7c0.2-0.2,0.5-0.2,0.7,0
				c0.2,0.2,0.2,0.5,0,0.7l-8.7,8.7C767.2,223.5,767.1,223.6,767,223.6L767,223.6z"/>
		</g>
		<g id="XMLID_298_">
			<path id="XMLID_299_" class="st18" d="M775.6,219.6c-0.1,0-0.3,0-0.4,0c-0.3,0-0.5-0.3-0.5-0.5s0.3-0.5,0.5-0.5
				c1.1,0.1,2.3-0.3,3.1-1.1l2.5-2.5c1.5-1.5,1.5-4,0-5.5l-0.3-0.3c-1.5-1.5-4-1.5-5.5,0l-2.5,2.5c-0.8,0.8-1.2,1.9-1.1,3.1
				c0,0.3-0.2,0.5-0.5,0.5c-0.3,0-0.5-0.2-0.5-0.5c-0.1-1.4,0.4-2.8,1.4-3.9l2.5-2.5c1.9-1.9,5-1.9,6.9,0l0.3,0.3
				c1.9,1.9,1.9,5,0,6.9l-2.5,2.5C778.1,219.1,776.9,219.6,775.6,219.6L775.6,219.6z"/>
		</g>
		<g id="XMLID_296_">
			<path id="XMLID_297_" class="st18" d="M765.2,230c-1.2,0-2.5-0.5-3.4-1.4l-0.3-0.3c-0.9-0.9-1.4-2.1-1.4-3.4s0.5-2.5,1.4-3.4
				l2.5-2.5c1-1,2.4-1.5,3.9-1.4c0.3,0,0.5,0.3,0.5,0.5c0,0.3-0.3,0.5-0.5,0.5c-1.1-0.1-2.3,0.3-3.1,1.1l-2.5,2.5
				c-0.7,0.7-1.1,1.7-1.1,2.7c0,1,0.4,2,1.1,2.7l0.3,0.3c1.5,1.5,4,1.5,5.5,0l2.5-2.5c0.8-0.8,1.2-1.9,1.1-3.1
				c0-0.3,0.2-0.5,0.5-0.5c0.3,0,0.5,0.2,0.5,0.5c0.1,1.4-0.4,2.8-1.4,3.9l-2.5,2.5C767.7,229.5,766.4,230,765.2,230L765.2,230z"/>
		</g>
	</g>
	<g id="XMLID_284_">
		<g id="XMLID_285_">
			<g id="XMLID_291_">
				<path id="XMLID_292_" class="st18" d="M73.2,129.5H51.4c-0.3,0-0.5-0.2-0.5-0.5v-21.8c0-0.3,0.2-0.5,0.5-0.5h21.8
					c0.3,0,0.5,0.2,0.5,0.5V129C73.7,129.3,73.5,129.5,73.2,129.5L73.2,129.5z M51.9,128.5h20.8v-20.8H51.9V128.5L51.9,128.5z"/>
			</g>
			<g id="XMLID_289_">
				<path id="XMLID_290_" class="st18" d="M72.8,113.5H51.8c-0.3,0-0.5-0.2-0.5-0.5s0.2-0.5,0.5-0.5h21.1c0.3,0,0.5,0.2,0.5,0.5
					S73.1,113.5,72.8,113.5L72.8,113.5z"/>
			</g>
			<path id="XMLID_288_" class="st18" d="M54.3,109c-0.6,0-1.1,0.5-1.1,1.1c0,0.6,0.5,1.1,1.1,1.1c0.6,0,1.1-0.5,1.1-1.1
				C55.4,109.5,54.9,109,54.3,109L54.3,109z"/>
			<path id="XMLID_287_" class="st18" d="M57.5,109c-0.6,0-1.1,0.5-1.1,1.1c0,0.6,0.5,1.1,1.1,1.1c0.6,0,1.1-0.5,1.1-1.1
				C58.6,109.5,58.1,109,57.5,109L57.5,109z"/>
			<path id="XMLID_286_" class="st18" d="M60.7,109c-0.6,0-1.1,0.5-1.1,1.1c0,0.6,0.5,1.1,1.1,1.1c0.6,0,1.1-0.5,1.1-1.1
				C61.8,109.5,61.3,109,60.7,109L60.7,109z"/>
		</g>
	</g>
	<g id="XMLID_231_">
		<circle id="XMLID_283_" class="st6" cx="795.1" cy="52" r="23.6"/>
		<path id="XMLID_282_" class="st15" d="M795.1,28.4c13,0,23.6,10.6,23.6,23.6c0,13-10.6,23.6-23.6,23.6"/>
		<circle id="XMLID_281_" class="st4" cx="795.1" cy="52" r="18.3"/>
		<path id="XMLID_280_" class="st19" d="M778.7,53.3c0-10.1,8.2-18.3,18.3-18.3c3.3,0,6.5,0.9,9.2,2.5c-3.1-2.4-6.9-3.8-11.1-3.8
			c-10.1,0-18.3,8.2-18.3,18.3c0,6.8,3.7,12.7,9.2,15.9C781.5,64.5,778.7,59.2,778.7,53.3z"/>
		<circle id="XMLID_279_" class="st1" cx="795.1" cy="52" r="3.3"/>
		<g id="XMLID_236_">
			<g id="XMLID_242_">
				<g id="XMLID_265_">
					<g id="XMLID_277_">
						<path id="XMLID_278_" class="st1" d="M802.8,38.7c0,0-0.1,0-0.1,0c-0.1-0.1-0.2-0.2-0.1-0.4l0.5-0.9c0.1-0.1,0.2-0.2,0.4-0.1
							c0.1,0.1,0.2,0.2,0.1,0.4l-0.5,0.9C803,38.7,802.9,38.7,802.8,38.7L802.8,38.7z"/>
					</g>
					<g id="XMLID_275_">
						<path id="XMLID_276_" class="st1" d="M786.8,66.6c0,0-0.1,0-0.1,0c-0.1-0.1-0.2-0.2-0.1-0.4l0.5-0.9c0.1-0.1,0.2-0.2,0.4-0.1
							c0.1,0.1,0.2,0.2,0.1,0.4l-0.5,0.9C786.9,66.6,786.8,66.6,786.8,66.6L786.8,66.6z"/>
					</g>
					<g id="XMLID_273_">
						<path id="XMLID_274_" class="st1" d="M809.4,60.5c0,0-0.1,0-0.1,0l-0.9-0.5c-0.1-0.1-0.2-0.2-0.1-0.4c0.1-0.1,0.2-0.2,0.4-0.1
							l0.9,0.5c0.1,0.1,0.2,0.2,0.1,0.4C809.6,60.5,809.5,60.5,809.4,60.5L809.4,60.5z"/>
					</g>
					<g id="XMLID_266_">
						<path id="XMLID_267_" class="st1" d="M781.6,44.4c0,0-0.1,0-0.1,0l-0.9-0.5c-0.1-0.1-0.2-0.2-0.1-0.4c0.1-0.1,0.2-0.2,0.4-0.1
							l0.9,0.5c0.1,0.1,0.2,0.2,0.1,0.4C781.7,44.4,781.6,44.4,781.6,44.4L781.6,44.4z"/>
					</g>
				</g>
				<g id="XMLID_252_">
					<g id="XMLID_259_">
						<path id="XMLID_264_" class="st1" d="M787.3,38.7c-0.1,0-0.2,0-0.2-0.1l-0.5-0.9c-0.1-0.1,0-0.3,0.1-0.4
							c0.1-0.1,0.3,0,0.4,0.1l0.5,0.9c0.1,0.1,0,0.3-0.1,0.4C787.4,38.7,787.3,38.7,787.3,38.7L787.3,38.7z"/>
					</g>
					<g id="XMLID_257_">
						<path id="XMLID_258_" class="st1" d="M803.4,66.6c-0.1,0-0.2,0-0.2-0.1l-0.5-0.9c-0.1-0.1,0-0.3,0.1-0.4
							c0.1-0.1,0.3,0,0.4,0.1l0.5,0.9c0.1,0.1,0,0.3-0.1,0.4C803.5,66.6,803.4,66.6,803.4,66.6L803.4,66.6z"/>
					</g>
					<g id="XMLID_255_">
						<path id="XMLID_256_" class="st1" d="M780.7,60.5c-0.1,0-0.2,0-0.2-0.1c-0.1-0.1,0-0.3,0.1-0.4l0.9-0.5c0.1-0.1,0.3,0,0.4,0.1
							c0.1,0.1,0,0.3-0.1,0.4l-0.9,0.5C780.8,60.5,780.7,60.5,780.7,60.5L780.7,60.5z"/>
					</g>
					<g id="XMLID_253_">
						<path id="XMLID_254_" class="st1" d="M808.6,44.4c-0.1,0-0.2,0-0.2-0.1c-0.1-0.1,0-0.3,0.1-0.4l0.9-0.5c0.1-0.1,0.3,0,0.4,0.1
							c0.1,0.1,0,0.3-0.1,0.4l-0.9,0.5C808.7,44.4,808.6,44.4,808.6,44.4L808.6,44.4z"/>
					</g>
				</g>
				<g id="XMLID_243_">
					<g id="XMLID_250_">
						<path id="XMLID_251_" class="st1" d="M779.5,52.2L779.5,52.2l-1,0c-0.1,0-0.3-0.1-0.3-0.3c0-0.1,0.1-0.3,0.3-0.3h0l1,0
							c0.1,0,0.3,0.1,0.3,0.3C779.7,52.1,779.6,52.2,779.5,52.2L779.5,52.2z"/>
					</g>
					<g id="XMLID_248_">
						<path id="XMLID_249_" class="st1" d="M810.6,52.2c-0.1,0-0.3-0.1-0.3-0.3c0-0.1,0.1-0.3,0.3-0.3l1,0c0.2,0,0.3,0.1,0.3,0.3
							c0,0.1-0.1,0.3-0.3,0.3L810.6,52.2C810.7,52.2,810.7,52.2,810.6,52.2L810.6,52.2z"/>
					</g>
					<g id="XMLID_246_">
						<path id="XMLID_247_" class="st1" d="M795.1,68.8L795.1,68.8c-0.1,0-0.3-0.1-0.3-0.3l0-1c0-0.1,0.1-0.3,0.3-0.3c0,0,0,0,0,0
							c0.1,0,0.3,0.1,0.3,0.3l0,1C795.3,68.7,795.2,68.8,795.1,68.8L795.1,68.8z"/>
					</g>
					<g id="XMLID_244_">
						<path id="XMLID_245_" class="st1" d="M795.1,36.6c-0.1,0-0.3-0.1-0.3-0.3v-1c0-0.3,0.5-0.3,0.5,0v1
							C795.3,36.5,795.2,36.6,795.1,36.6L795.1,36.6z"/>
					</g>
				</g>
			</g>
			<g id="XMLID_237_">
				<g id="XMLID_240_">
					<path id="XMLID_241_" class="st1" d="M795.1,52.8c-0.5,0-0.9-0.4-0.9-0.9V39c0-0.5,0.4-0.9,0.9-0.9c0.5,0,0.9,0.4,0.9,0.9v13
						C795.9,52.4,795.5,52.8,795.1,52.8L795.1,52.8z"/>
				</g>
				<g id="XMLID_238_">
					<path id="XMLID_239_" class="st1" d="M789.4,58.5c-0.2,0-0.4-0.1-0.6-0.3c-0.3-0.3-0.3-0.9,0-1.2l5.5-5.5
						c0.3-0.3,0.9-0.3,1.2,0c0.3,0.3,0.3,0.9,0,1.2l-5.5,5.5C789.8,58.4,789.6,58.5,789.4,58.5L789.4,58.5z"/>
				</g>
			</g>
		</g>
		<circle id="XMLID_235_" class="st4" cx="795.1" cy="52" r="2"/>
		<circle id="XMLID_234_" class="st3" cx="795.1" cy="52" r="1"/>
		<g id="XMLID_232_">
			<path id="XMLID_233_" class="st3" d="M795.1,52.4c-0.2,0-0.4-0.1-0.4-0.3c-0.1-0.2,0.1-0.5,0.3-0.5l11.3-3.4
				c0.2-0.1,0.5,0.1,0.5,0.3c0.1,0.2-0.1,0.5-0.3,0.5l-11.3,3.4C795.1,52.4,795.1,52.4,795.1,52.4L795.1,52.4z"/>
		</g>
	</g>
	<g id="XMLID_206_">
		<g id="XMLID_229_">
			<path id="XMLID_230_" class="st18" d="M238.9,195c-0.1,0-0.1,0-0.2,0c-3.3-1.3-6.9-1.7-10.4-1.2c-0.3,0-0.5-0.2-0.6-0.4
				c0-0.3,0.2-0.5,0.4-0.6c3.7-0.5,7.4,0,10.9,1.3c0.3,0.1,0.4,0.4,0.3,0.6C239.3,194.8,239.1,195,238.9,195L238.9,195z"/>
		</g>
		<g id="XMLID_227_">
			<path id="XMLID_228_" class="st18" d="M221,196c-0.2,0-0.4-0.1-0.4-0.3c-0.1-0.2,0-0.5,0.2-0.7c0.8-0.4,1.6-0.8,2.5-1.1
				c0.3-0.1,0.5,0,0.6,0.3c0.1,0.3,0,0.5-0.3,0.6c-0.8,0.3-1.6,0.7-2.4,1.1C221.1,196,221,196,221,196L221,196z"/>
		</g>
		<g id="XMLID_225_">
			<path id="XMLID_226_" class="st18" d="M234.2,202L234.2,202c-0.3,0-0.5-0.2-0.5-0.5c0-7-3.4-13.6-9.2-17.6
				c-0.2-0.2-0.3-0.5-0.1-0.7c0.2-0.2,0.5-0.3,0.7-0.1c6.1,4.2,9.7,11,9.7,18.4C234.7,201.8,234.5,202,234.2,202L234.2,202z"/>
		</g>
		<g id="XMLID_223_">
			<path id="XMLID_224_" class="st18" d="M233,186.8c-0.1,0-0.2,0-0.3-0.1c-2.1-1.4-3.8-3.1-5.3-5.1c-0.2-0.2-0.1-0.5,0.1-0.7
				c0.2-0.2,0.5-0.1,0.7,0.1c1.4,1.9,3.1,3.5,5.1,4.8c0.2,0.2,0.3,0.5,0.1,0.7C233.3,186.7,233.1,186.8,233,186.8L233,186.8z"/>
		</g>
		<g id="XMLID_221_">
			<path id="XMLID_222_" class="st18" d="M241.9,190.2C241.9,190.2,241.8,190.2,241.9,190.2c-1.7-0.3-3.4-0.7-4.9-1.3
				c-0.3-0.1-0.4-0.4-0.3-0.6c0.1-0.3,0.4-0.4,0.6-0.3c1.5,0.6,3,1,4.6,1.2c0.3,0,0.5,0.3,0.4,0.6
				C242.3,190,242.1,190.2,241.9,190.2L241.9,190.2z"/>
		</g>
		<g id="XMLID_217_">
			<path id="XMLID_218_" class="st18" d="M235,190.2c-1.6,0-2.8-1.3-2.8-2.8c0-1.6,1.3-2.8,2.8-2.8c1.6,0,2.8,1.3,2.8,2.8
				C237.9,188.9,236.6,190.2,235,190.2L235,190.2z M235,185.5c-1,0-1.8,0.8-1.8,1.8c0,1,0.8,1.8,1.8,1.8c1,0,1.8-0.8,1.8-1.8
				C236.9,186.4,236,185.5,235,185.5L235,185.5z"/>
		</g>
		<g id="XMLID_213_">
			<path id="XMLID_214_" class="st18" d="M241,198.5c-1.6,0-2.8-1.3-2.8-2.8c0-1.6,1.3-2.8,2.8-2.8c1.6,0,2.8,1.3,2.8,2.8
				C243.9,197.2,242.6,198.5,241,198.5L241,198.5z M241,193.8c-1,0-1.8,0.8-1.8,1.8c0,1,0.8,1.8,1.8,1.8c1,0,1.8-0.8,1.8-1.8
				C242.9,194.6,242,193.8,241,193.8L241,193.8z"/>
		</g>
		<g id="XMLID_211_">
			<path id="XMLID_212_" class="st18" d="M231.1,203.1c-6.3,0-11.4-5.1-11.4-11.4c0-6.3,5.1-11.4,11.4-11.4
				c6.3,0,11.4,5.1,11.4,11.4c0,0.6-0.1,1.1-0.2,1.8c0,0.3-0.3,0.5-0.6,0.4c-0.3,0-0.5-0.3-0.4-0.6c0.1-0.6,0.1-1.1,0.1-1.6
				c0-5.7-4.7-10.4-10.4-10.4c-5.7,0-10.4,4.7-10.4,10.4c0,5.7,4.7,10.4,10.4,10.4c3.5,0,6.7-1.7,8.6-4.6c0.2-0.2,0.5-0.3,0.7-0.1
				c0.2,0.2,0.3,0.5,0.1,0.7C238.4,201.2,234.9,203.1,231.1,203.1L231.1,203.1z"/>
		</g>
		<g id="XMLID_207_">
			<path id="XMLID_208_" class="st18" d="M225.9,196.8c-1.6,0-2.8-1.3-2.8-2.8c0-1.6,1.3-2.8,2.8-2.8c1.6,0,2.8,1.3,2.8,2.8
				C228.7,195.6,227.5,196.8,225.9,196.8L225.9,196.8z M225.9,192.2c-1,0-1.8,0.8-1.8,1.8c0,1,0.8,1.8,1.8,1.8c1,0,1.8-0.8,1.8-1.8
				C227.7,193,226.9,192.2,225.9,192.2L225.9,192.2z"/>
		</g>
	</g>
</g>
</svg>
